<svg xmlns="http://www.w3.org/2000/svg" width="190" height="190" viewBox="0 0 190 190">
  <g id="index_treatment08" transform="translate(-10 -10)">
    <circle id="楕円形_6" data-name="楕円形 6" cx="95" cy="95" r="95" transform="translate(10 10)" fill="#f9f6ef"/>
    <g id="ああ_" data-name="ああｆｆ" transform="translate(-1739.729 -948.323)">
      <path id="パス_27" data-name="パス 27" d="M1852.914,1036.86a11.633,11.633,0,0,0-1.705-7.785c-6.312-8.837-15.687-7.728-21.642-3.865a3.3,3.3,0,0,1-3.589,0c-5.955-3.863-15.33-4.972-21.642,3.865a11.634,11.634,0,0,0-1.706,7.78" transform="translate(-12.127)" fill="#fff" stroke="#767777" stroke-linecap="round" stroke-linejoin="round" stroke-width="4"/>
      <path id="パス_28" data-name="パス 28" d="M1812.281,1093.134c1.192,3.278-.281,10.988.373,16.611.745,6.406,5.243,13.565,8.521,13.565s3.966-20.716,12.532-20.716,9.255,20.716,12.532,20.716,7.776-7.16,8.521-13.565c.654-5.623-.82-13.333.372-16.611" transform="translate(-18.061 -43.277)" fill="#fff" stroke="#767777" stroke-linecap="round" stroke-linejoin="round" stroke-width="4"/>
      <path id="パス_29" data-name="パス 29" d="M2003.654,1037.669c.362-3.111.073-6.214-1.627-8.594-6.312-8.837-15.687-7.728-21.642-3.865a3.3,3.3,0,0,1-3.588,0c-5.956-3.863-15.33-4.972-21.642,3.865a11.632,11.632,0,0,0-1.707,7.776" transform="translate(-104.3)" fill="#fff" stroke="#767777" stroke-linecap="round" stroke-linejoin="round" stroke-width="4"/>
      <path id="パス_30" data-name="パス 30" d="M1963.1,1093.134c1.192,3.278-.281,10.988.373,16.611.745,6.406,5.243,13.565,8.52,13.565s3.967-20.716,12.532-20.716,9.255,20.716,12.532,20.716,7.776-7.16,8.52-13.565c.654-5.623-.819-13.333.373-16.611" transform="translate(-110.234 -43.277)" fill="#fff" stroke="#767777" stroke-linecap="round" stroke-linejoin="round" stroke-width="4"/>
      <rect id="長方形_33" data-name="長方形 33" width="19.011" height="13.175" rx="6.587" transform="translate(1806.14 1036.86)" stroke-width="4" stroke="#ffbb63" stroke-linecap="round" stroke-linejoin="round" fill="#fff"/>
      <rect id="長方形_34" data-name="長方形 34" width="19.011" height="13.175" rx="6.587" transform="translate(1864.784 1036.86)" stroke-width="4" stroke="#ffbb63" stroke-linecap="round" stroke-linejoin="round" fill="#fff"/>
      <line id="線_12" data-name="線 12" x2="124.887" transform="translate(1782.729 1043.447)" fill="none" stroke="#ffbb63" stroke-linecap="round" stroke-linejoin="round" stroke-width="4"/>
    </g>
  </g>
</svg>
