<svg xmlns="http://www.w3.org/2000/svg" width="190" height="190" viewBox="0 0 190 190">
  <g id="index_treatment06" transform="translate(-10 -10)">
    <circle id="楕円形_1" data-name="楕円形 1" cx="95" cy="95" r="95" transform="translate(10 10)" fill="#f9f6ef"/>
    <g id="_" data-name="１１２" transform="translate(-257.261 -1798.611)">
      <line id="線_1" data-name="線 1" x2="8.953" transform="translate(357.588 1949.032)" fill="none" stroke="#767777" stroke-linecap="round" stroke-linejoin="round" stroke-width="4"/>
      <line id="線_2" data-name="線 2" x1="0.363" y1="5.046" transform="translate(350.904 1912.024)" fill="none" stroke="#767777" stroke-linecap="round" stroke-linejoin="round" stroke-width="4"/>
      <line id="線_3" data-name="線 3" x1="0.363" y1="5.052" transform="translate(351.537 1920.83)" fill="none" stroke="#767777" stroke-linecap="round" stroke-linejoin="round" stroke-width="4"/>
      <line id="線_4" data-name="線 4" x1="0.383" y1="5.328" transform="translate(352.151 1929.365)" fill="none" stroke="#767777" stroke-linecap="round" stroke-linejoin="round" stroke-width="4"/>
      <path id="パス_5" data-name="パス 5" d="M416.311,2108.645l-.308,3.812a2.493,2.493,0,0,1-2.484,2.292h-13.07a2.493,2.493,0,0,1-2.486-2.314l-.118-1.645" transform="translate(-45.045 -172.418)" fill="rgba(0,0,0,0)" stroke="#767777" stroke-linecap="round" stroke-linejoin="round" stroke-width="4"/>
      <line id="線_5" data-name="線 5" x1="0.376" y2="4.642" transform="translate(371.607 1927.383)" fill="none" stroke="#767777" stroke-linecap="round" stroke-linejoin="round" stroke-width="4"/>
      <line id="線_6" data-name="線 6" x1="0.413" y2="5.097" transform="translate(372.31 1918.246)" fill="none" stroke="#767777" stroke-linecap="round" stroke-linejoin="round" stroke-width="4"/>
      <line id="線_7" data-name="線 7" x1="0.19" y2="2.351" transform="translate(373.035 1912.024)" fill="none" stroke="#767777" stroke-linecap="round" stroke-linejoin="round" stroke-width="4"/>
      <line id="線_8" data-name="線 8" x1="33.91" y2="4.165" transform="translate(345.11 1913.661)" fill="none" stroke="#767777" stroke-linecap="round" stroke-linejoin="round" stroke-width="4"/>
      <line id="線_9" data-name="線 9" x1="33.91" y2="4.165" transform="translate(345.11 1922.55)" fill="none" stroke="#767777" stroke-linecap="round" stroke-linejoin="round" stroke-width="4"/>
      <line id="線_10" data-name="線 10" x1="33.91" y2="4.165" transform="translate(345.11 1931.439)" fill="none" stroke="#767777" stroke-linecap="round" stroke-linejoin="round" stroke-width="4"/>
      <path id="パス_6" data-name="パス 6" d="M337.293,1895.677a5.158,5.158,0,0,0,5.927,5.156,131.038,131.038,0,0,1,37.689,0,5.158,5.158,0,0,0,5.927-5.155,16.858,16.858,0,0,1,.567-5.5c1.41-3.876,7.664-17.178,2.379-24.578-7.465-10.452-18.553-9.14-25.6-4.571a3.892,3.892,0,0,1-4.243,0c-7.043-4.569-18.131-5.881-25.6,4.571-5.285,7.4.969,20.7,2.379,24.578A16.855,16.855,0,0,1,337.293,1895.677Z" transform="translate(0 0)" fill="#fff" stroke="#767777" stroke-linecap="round" stroke-linejoin="round" stroke-width="4"/>
      <line id="線_11" data-name="線 11" x2="20.387" transform="translate(351.871 1905.962)" fill="none" stroke="#767777" stroke-linecap="round" stroke-linejoin="round" stroke-width="4"/>
      <path id="パス_7" data-name="パス 7" d="M390,1887.048c3.158,1.4,7.467,3.509,11.54,3.509s7.581-2.631,10.037-3.509" transform="translate(-39.655 -20.218)" fill="rgba(0,0,0,0)" stroke="#ff962d" stroke-linecap="round" stroke-linejoin="round" stroke-width="4"/>
    </g>
  </g>
</svg>
