<svg xmlns="http://www.w3.org/2000/svg" width="190" height="190" viewBox="0 0 190 190">
  <g id="index_treatment04" transform="translate(-12 -3)">
    <circle id="楕円形_10" data-name="楕円形 10" cx="95" cy="95" r="95" transform="translate(12 3)" fill="#f9f6ef"/>
    <g id="グループ_66" data-name="グループ 66" transform="translate(-1071 -1837)">
      <g id="グループ_64" data-name="グループ 64" transform="translate(1376.417 1746.044)">
        <path id="パス_85" data-name="パス 85" d="M-163.309,434.076c1.835,7.507-.9,14.623-6.116,15.9s-10.926-3.778-12.761-11.285.9-14.624,6.115-15.9S-165.144,426.57-163.309,434.076Z" transform="translate(-52.083 -240.919)" fill="#f5f5f5" stroke="#707070" stroke-width="3"/>
        <path id="パス_86" data-name="パス 86" d="M-207.045,364.225a.875.875,0,0,1-.156-.014,48,48,0,0,1-13.41-4.467c-10.033-4.09-16.714-10.282-19.857-18.4-2.477-6.4-2.861-14.094-1.17-23.5a40.689,40.689,0,0,1-4.5-7.141.881.881,0,0,1,.287-1.119,69.266,69.266,0,0,1,7.621-4.468.881.881,0,0,1,1.182.394.881.881,0,0,1-.394,1.182,69.625,69.625,0,0,0-6.763,3.911,32.345,32.345,0,0,0,4.142,6.337.881.881,0,0,1,.244.784c-3.8,20.495,2.526,33.335,19.913,40.409q.035.014.069.032a46.221,46.221,0,0,0,12.951,4.318.882.882,0,0,1,.713,1.023A.882.882,0,0,1-207.045,364.225Z" transform="translate(0 -140.747)" fill="#767777" stroke="#707070" stroke-width="1"/>
        <path id="パス_87" data-name="パス 87" d="M-112.68,331.278a4.662,4.662,0,0,1-2.218-.589,5.62,5.62,0,0,1-2.772-6.364.991.991,0,0,1,1.232-.669.991.991,0,0,1,.669,1.232,3.6,3.6,0,0,0,1.813,4.056,2.333,2.333,0,0,0,3.105-.588.991.991,0,0,1,1.4-.117.991.991,0,0,1,.117,1.4A4.348,4.348,0,0,1-112.68,331.278Z" transform="translate(-109.351 -156.592)" fill="#767777" stroke="#767777" stroke-width="1"/>
        <path id="パス_89" data-name="パス 89" d="M-86.39,238.539a.725.725,0,0,1-.161-.018.716.716,0,0,1-.538-.858c.11-.479,2.545-11.061,4.165-14.605-19.56-12.257-13.9-28.755-11.752-33.432a48.333,48.333,0,0,0-19.686,8.087.717.717,0,0,1-.818.037c-.207-.131-5.085-3.231-6.708-5.937a.716.716,0,0,1,.245-.982.716.716,0,0,1,.983.245c1.2,2,4.651,4.405,5.839,5.2a49.079,49.079,0,0,1,21.31-8.259.716.716,0,0,1,.685.313.716.716,0,0,1,.026.753c-.456.8-10.906,19.684,11.188,33.1a.716.716,0,0,1,.242.98c-1.227,2.046-3.535,11.391-4.321,14.819A.716.716,0,0,1-86.39,238.539Z" transform="translate(-105.851 -44.063)" fill="#767777" stroke="#707070" stroke-width="2"/>
        <path id="パス_91" data-name="パス 91" d="M-64.438,264.945a.768.768,0,0,1-.176-.02.771.771,0,0,1-.575-.926,5.147,5.147,0,0,0-1.468-5.03,4.431,4.431,0,0,0-4.553-.838.771.771,0,0,1-.983-.472.771.771,0,0,1,.472-.983,6.008,6.008,0,0,1,6.094,1.145,6.688,6.688,0,0,1,1.94,6.53A.772.772,0,0,1-64.438,264.945Z" transform="translate(-148.239 -99.248)" fill="#767777" stroke="#767777" stroke-width="1"/>
        <path id="パス_93" data-name="パス 93" d="M316.159,152.557h0c-15.061-18.732-43.478-17.3-63.313-1.993,1.581,2.635,6.587,5.8,6.587,5.8a49.274,49.274,0,0,1,21.739-8.564c-1.567,2.742-10.121,21.012,11.052,34.292q-.178,1.233-.343,2.528c-1.579,4.489-3.557,13.115-3.557,13.115s.886,1.876,2.125,4.744c-.426,10.507-3.74,13.934-2.949,28.967-.005-.091.007.136.021.365l36.875-5.875C329.271,163.182,326.188,163.532,316.159,152.557Z" transform="translate(-480.687 -3.851)" fill="#fff" stroke="#707070" stroke-width="4"/>
        <path id="パス_94" data-name="パス 94" d="M-162.446,426.235c1.916,2.38-.943,4.635-6.387,5.04s-11.411-1.2-13.326-3.577.943-4.636,6.386-5.04S-164.363,423.856-162.446,426.235Z" transform="translate(234.908 267.33) rotate(77)" fill="#ffbb63"/>
      </g>
      <g id="_" data-name="ｄｄｄ" transform="translate(1376.417 1746.044)">
        <path id="パス_86-2" data-name="パス 86" d="M-207.045,364.225a.875.875,0,0,1-.156-.014,48,48,0,0,1-13.41-4.467c-10.033-4.09-16.714-10.282-19.857-18.4-2.477-6.4-2.861-14.094-1.17-23.5a40.689,40.689,0,0,1-4.5-7.141.881.881,0,0,1,.287-1.119,69.266,69.266,0,0,1,7.621-4.468.881.881,0,0,1,1.182.394.881.881,0,0,1-.394,1.182,69.625,69.625,0,0,0-6.763,3.911,32.345,32.345,0,0,0,4.142,6.337.881.881,0,0,1,.244.784c-3.8,20.495,2.526,33.335,19.913,40.409q.035.014.069.032a46.221,46.221,0,0,0,12.951,4.318.882.882,0,0,1,.713,1.023A.882.882,0,0,1-207.045,364.225Z" transform="translate(0 -140.747)" fill="#707070" stroke="#707070" stroke-width="1"/>
        <path id="パス_87-2" data-name="パス 87" d="M-112.68,331.278a4.662,4.662,0,0,1-2.218-.589,5.62,5.62,0,0,1-2.772-6.364.991.991,0,0,1,1.232-.669.991.991,0,0,1,.669,1.232,3.6,3.6,0,0,0,1.813,4.056,2.333,2.333,0,0,0,3.105-.588.991.991,0,0,1,1.4-.117.991.991,0,0,1,.117,1.4A4.348,4.348,0,0,1-112.68,331.278Z" transform="translate(-109.351 -156.592)" fill="#767777" stroke="#767777" stroke-width="1"/>
        <path id="パス_89-2" data-name="パス 89" d="M-86.39,238.539a.725.725,0,0,1-.161-.018.716.716,0,0,1-.538-.858c.11-.479,2.545-11.061,4.165-14.605-19.56-12.257-13.9-28.755-11.752-33.432a48.333,48.333,0,0,0-19.686,8.087.717.717,0,0,1-.818.037c-.207-.131-5.085-3.231-6.708-5.937a.716.716,0,0,1,.245-.982.716.716,0,0,1,.983.245c1.2,2,4.651,4.405,5.839,5.2a49.079,49.079,0,0,1,21.31-8.259.716.716,0,0,1,.685.313.716.716,0,0,1,.026.753c-.456.8-10.906,19.684,11.188,33.1a.716.716,0,0,1,.242.98c-1.227,2.046-3.535,11.391-4.321,14.819A.716.716,0,0,1-86.39,238.539Z" transform="translate(-105.851 -44.063)" fill="#767777" stroke="#707070" stroke-width="2"/>
        <path id="パス_91-2" data-name="パス 91" d="M-64.438,264.945a.768.768,0,0,1-.176-.02.771.771,0,0,1-.575-.926,5.147,5.147,0,0,0-1.468-5.03,4.431,4.431,0,0,0-4.553-.838.771.771,0,0,1-.983-.472.771.771,0,0,1,.472-.983,6.008,6.008,0,0,1,6.094,1.145,6.688,6.688,0,0,1,1.94,6.53A.772.772,0,0,1-64.438,264.945Z" transform="translate(-148.239 -99.248)" fill="#767777" stroke="#767777" stroke-width="1"/>
        <path id="パス_93-2" data-name="パス 93" d="M316.159,152.557h0c-15.061-18.732-43.478-17.3-63.313-1.993,1.581,2.635,6.587,5.8,6.587,5.8a49.274,49.274,0,0,1,21.739-8.564c-1.567,2.742-10.121,21.012,11.052,34.292q-.178,1.233-.343,2.528c-1.579,4.489-3.557,13.115-3.557,13.115s.886,1.876,2.125,4.744c-.426,10.507-3.74,13.934-2.949,28.967-.005-.091.007.136.021.365l36.875-5.875C329.271,163.182,326.188,163.532,316.159,152.557Z" transform="translate(-480.687 -3.851)" fill="#fff" stroke="#707070" stroke-width="3"/>
        <path id="パス_92" data-name="パス 92" d="M-196.988,189.242s12.857-12.857,13-2.714-2.429,15.428-8,15.143-6.944-3.678-6.944-3.678" transform="translate(-2 -1)" fill="#f9f6ef" stroke="#707070" stroke-width="3"/>
        <path id="パス_85-2" data-name="パス 85" d="M-163.309,434.076c1.835,7.507-.9,14.623-6.116,15.9s-10.926-3.778-12.761-11.285.9-14.624,6.115-15.9S-165.144,426.57-163.309,434.076Z" transform="translate(-52.083 -240.919)" fill="none" stroke="#707070" stroke-width="3"/>
      </g>
    </g>
  </g>
</svg>
