<svg xmlns="http://www.w3.org/2000/svg" width="190" height="190" viewBox="0 0 190 190">
  <g id="index_treatment05" transform="translate(-9 -10)">
    <circle id="楕円形_9" data-name="楕円形 9" cx="95" cy="95" r="95" transform="translate(9 10)" fill="#f9f6ef"/>
    <g id="_1111" data-name="1111" transform="translate(-416.544 -670.344)">
      <path id="長方形_124" data-name="長方形 124" d="M17,0H72A17,17,0,0,1,89,17v5a0,0,0,0,1,0,0H0a0,0,0,0,1,0,0V17A17,17,0,0,1,17,0Z" transform="translate(476.544 743.344)" fill="#ffbb63"/>
      <path id="長方形_125" data-name="長方形 125" d="M17,0H72A17,17,0,0,1,89,17v5a0,0,0,0,1,0,0H0a0,0,0,0,1,0,0V17A17,17,0,0,1,17,0Z" transform="translate(565.544 807.344) rotate(180)" fill="#ffbb63"/>
      <rect id="長方形_126" data-name="長方形 126" width="13" height="35" rx="6.5" transform="translate(489.544 758.344)" fill="#fff"/>
      <rect id="長方形_127" data-name="長方形 127" width="14" height="35" rx="7" transform="translate(505.544 758.344)" fill="#fff"/>
      <rect id="長方形_128" data-name="長方形 128" width="14" height="35" rx="7" transform="translate(522.544 758.344)" fill="#fff"/>
      <rect id="長方形_129" data-name="長方形 129" width="13" height="35" rx="6.5" transform="translate(539.544 758.344)" fill="#fff"/>
      <path id="パス_43" data-name="パス 43" d="M565.242,766.491v-9.67a13.414,13.414,0,0,0-13.32-13.477H489.864a13.414,13.414,0,0,0-13.32,13.477v9.67a1.386,1.386,0,0,0,1.386,1.386h1v4.158a1.386,1.386,0,0,0,2.772,0v-4.158h6.776v16.574H481.6a1.381,1.381,0,0,0-2.562,0H477.93a1.386,1.386,0,0,0-1.386,1.385v9.671a13.414,13.414,0,0,0,13.32,13.476h62.058a13.414,13.414,0,0,0,13.32-13.476v-9.671a1.386,1.386,0,0,0-1.386-1.385h-1v-4.158a1.386,1.386,0,1,0-2.772,0v4.158h-6.776V767.877h6.881a1.381,1.381,0,0,0,2.562,0h1.105A1.386,1.386,0,0,0,565.242,766.491Zm-2.772-1.385h-9.3a8.469,8.469,0,0,0-15.814-2.844,9.631,9.631,0,0,0-16.462.459,9.631,9.631,0,0,0-16.462-.459,8.469,8.469,0,0,0-15.814,2.844h-9.3v-8.285a10.64,10.64,0,0,1,10.549-10.705h62.058a10.64,10.64,0,0,1,10.549,10.705Zm-1,22.117h1v8.285a10.639,10.639,0,0,1-10.549,10.7H489.864a10.64,10.64,0,0,1-10.549-10.7v-8.285h9.3a8.469,8.469,0,0,0,15.814,2.844,9.631,9.631,0,0,0,16.462-.458,9.631,9.631,0,0,0,16.462.458,8.469,8.469,0,0,0,15.814-2.844ZM536.1,766.491a7.223,7.223,0,0,1,.12,1.209v7.078H522.279V767.7a7.913,7.913,0,0,1,.5-2.595,6.907,6.907,0,0,1,12.934,0A7.051,7.051,0,0,1,536.1,766.491Zm.12,17.96v.177a7.215,7.215,0,0,1-.12,1.209,7.069,7.069,0,0,1-.381,1.386,6.908,6.908,0,0,1-12.934,0,7.922,7.922,0,0,1-.5-2.595V777.55h13.936Zm-30.523,1.385a7.222,7.222,0,0,1-.12-1.209V777.55h13.936v7.078a7.146,7.146,0,0,1-.121,1.209,7.068,7.068,0,0,1-.38,1.386,6.908,6.908,0,0,1-12.934,0A7.069,7.069,0,0,1,505.691,785.836Zm13.7-19.345a7.153,7.153,0,0,1,.121,1.209v7.078H505.572V767.7a7.229,7.229,0,0,1,.12-1.209,7.051,7.051,0,0,1,.381-1.385,6.907,6.907,0,0,1,12.934,0A7.049,7.049,0,0,1,519.387,766.491Zm-28.136,1.386v-1.386a5.905,5.905,0,0,1,.18-1.385,5.732,5.732,0,0,1,11.188,0,5.894,5.894,0,0,1,.18,1.385v8.287H491.25Zm0,16.574v-6.9H502.8v8.286a5.9,5.9,0,0,1-.18,1.386,5.733,5.733,0,0,1-11.188,0,5.916,5.916,0,0,1-.18-1.386Zm59.286,0v1.385a5.917,5.917,0,0,1-.18,1.386,5.733,5.733,0,0,1-11.188,0,5.908,5.908,0,0,1-.18-1.386V777.55h11.549Zm0-16.574v6.9H538.987v-8.287a5.9,5.9,0,0,1,.18-1.385,5.732,5.732,0,0,1,11.188,0,5.907,5.907,0,0,1,.18,1.385Z" transform="translate(0 0)" fill="#707070" stroke="#707070" stroke-width="1"/>
      <path id="パス_44" data-name="パス 44" d="M516.722,1281.909a1.386,1.386,0,0,0,1.386-1.385v-1.848a1.386,1.386,0,1,0-2.772,0v1.848A1.386,1.386,0,0,0,516.722,1281.909Z" transform="translate(-36.405 -501.096)" fill="#707070" stroke="#707070" stroke-width="1"/>
      <path id="パス_45" data-name="パス 45" d="M1835.857,1201.262a1.386,1.386,0,0,0-1.386,1.386v1.847a1.386,1.386,0,1,0,2.772,0v-1.847A1.386,1.386,0,0,0,1835.857,1201.262Z" transform="translate(-1274.387 -429.747)" fill="#707070" stroke="#707070" stroke-width="1"/>
    </g>
  </g>
</svg>
