<svg xmlns="http://www.w3.org/2000/svg" width="190" height="190" viewBox="0 0 190 190">
  <g id="index_treatment07" transform="translate(-10 -10)">
    <circle id="楕円形_5" data-name="楕円形 5" cx="95" cy="95" r="95" transform="translate(10 10)" fill="#f9f6ef"/>
    <g id="_" data-name="１２３４" transform="translate(-656 -1745)">
      <g id="グループ_11" data-name="グループ 11" transform="translate(720 1810)">
        <path id="パス_35" data-name="パス 35" d="M350.172,555.848c-8-7.172-18.156-5.486-24.943-1.085a4.34,4.34,0,0,1-4.724,0c-7.84-5.085-20.181-6.545-28.49,5.088-5.883,8.237,1.079,23.043,2.647,27.358s-.371,14.464.49,21.866c.981,8.433,6.9,17.858,11.216,17.858s5.221-27.271,16.5-27.271,12.183,27.271,16.5,27.271,10.236-9.425,11.216-17.858c.633-5.449-.25-12.385-.135-17.388" transform="translate(-289.693 -550.963)" fill="#fff" stroke="#767777" stroke-linecap="round" stroke-linejoin="round" stroke-width="4"/>
        <path id="パス_36" data-name="パス 36" d="M350.412,576.08c3.515,1.562,8.312,3.905,12.845,3.905s8.439-2.929,11.172-3.905" transform="translate(-329.246 -567.325)" fill="#fff" stroke="#ffbb63" stroke-linecap="round" stroke-linejoin="round" stroke-width="4"/>
      </g>
      <path id="パス_48" data-name="パス 48" d="M600,652.456c10.74,0,19.883-10.085,19.883-21.93,0,11.846,9.144,21.93,19.884,21.93-10.74,0-19.884,10.085-19.884,21.931,0-11.846-9.144-21.931-19.883-21.931" transform="translate(171.661 1180.369)" fill="#fff" stroke="#767777" stroke-linecap="round" stroke-linejoin="round" stroke-width="4"/>
    </g>
  </g>
</svg>
