<svg xmlns="http://www.w3.org/2000/svg" xmlns:xlink="http://www.w3.org/1999/xlink" width="190" height="190" viewBox="0 0 190 190">
  <defs>
    <clipPath id="clip-path">
      <path id="パス_83" data-name="パス 83" d="M0,19.855a4.021,4.021,0,0,1,.179-.873C1.2,15,10.725,1.455,10.725,1.455S30.24-.482,30.836.114,47.073,7.562,47.073,7.562L42.008,17.99s-3.873-3.873-19.216,0S1.192,26.779,0,26.48" transform="matrix(-0.966, 0.259, -0.259, -0.966, 52.326, 25.591)" fill="none" stroke="#707070" stroke-width="1"/>
    </clipPath>
  </defs>
  <g id="index_treatment10" transform="translate(-10 -10)">
    <circle id="楕円形_8" data-name="楕円形 8" cx="95" cy="95" r="95" transform="translate(10 10)" fill="#f9f6ef"/>
    <g id="_" data-name="ｄｄｄｐｐ" transform="translate(-1275 -2160)">
      <path id="パス_79" data-name="パス 79" d="M836.283,1877.47c-4.794,2.683-22.624,3.923-26.434,3.923-.218,0-.437,0-.928,0-21.413-.106-47.657-5.484-47.716-5.528,0,0-.01-5.336,0-5.363l47.1-7.988,1.543-.235c.109,0,17.27.353,21.3,0" transform="translate(570.785 396.811)" fill="#fff"/>
      <path id="パス_31" data-name="パス 31" d="M0,6.787c10.692,2.825,38.01,6.158,43.9,6.158S66.568,11.952,71.32,10.2,75.3,8.268,75.3,8.268L70.385,5.139S52.445,6.372,44.913,6.787C28.642,7.682,0,0,0,0V6.787Z" transform="translate(1408.318 2267.797) rotate(172)" fill="#ffbb63"/>
      <path id="パス_32" data-name="パス 32" d="M836.283,1877.47c-4.794,2.683-22.624,3.923-26.434,3.923-.218,0-.437,0-.928,0-21.413-.106-47.657-5.484-47.716-5.528,0,0-.01-5.336,0-5.363l47.1-7.988,1.543-.235c.109,0,17.27.353,21.3,0" transform="translate(570.785 396.811)" fill="none" stroke="#767777" stroke-linecap="round" stroke-linejoin="round" stroke-width="4"/>
      <path id="パス_33" data-name="パス 33" d="M875.722,1951.608c-4.241,2.8-15.1,4.126-25.92,3.886-10.819.24-21.678-1.088-25.92-3.886" transform="translate(530.831 337.657)" fill="rgba(0,0,0,0)" stroke="#767777" stroke-linecap="round" stroke-linejoin="round" stroke-width="4"/>
      <path id="パス_34" data-name="パス 34" d="M878.787,1824.988c-4.168,0-15.018,4.2-19.517,6.012a5.342,5.342,0,0,1-4,0c-4.5-1.816-15.349-6.012-19.517-6.012" transform="translate(523.363 417.315)" fill="rgba(0,0,0,0)" stroke="#767777" stroke-linecap="round" stroke-linejoin="round" stroke-width="4"/>
      <path id="パス_80" data-name="パス 80" d="M734.914,176.036a9.116,9.116,0,0,0-1.473-1.19,9.032,9.032,0,0,0-14.653-10.03c-.038.037-.068.078-.1.115a9.023,9.023,0,0,0-13.431,9.759c-.254.2-.477.447-.736.658-4.272,3.46-4.586,8.8,0,12.779a12.591,12.591,0,0,0,1.18.908L699.913,194l11.592-2.469a8.962,8.962,0,0,0,2.361,4.178c3.529,3.528,10.076,4.223,13.605.694,1.22-1.22,2.2-3.666,1.559-4.962a9.025,9.025,0,0,0,5.883-15.4Z" transform="translate(706.402 2074.085)" fill="#fff"/>
      <g id="マスクグループ_50" data-name="マスクグループ 50" transform="translate(1399.674 2250.979)" clip-path="url(#clip-path)">
        <path id="パス_82" data-name="パス 82" d="M734.914,176.036a9.116,9.116,0,0,0-1.473-1.19,9.032,9.032,0,0,0-14.653-10.03c-.038.037-.068.078-.1.115a9.023,9.023,0,0,0-13.431,9.759c-.254.2-.477.447-.736.658-4.272,3.46-4.586,8.8,0,12.779a12.591,12.591,0,0,0,1.18.908L699.913,194l11.592-2.469a8.962,8.962,0,0,0,2.361,4.178c3.529,3.528,10.076,4.223,13.605.694,1.22-1.22,2.2-3.666,1.559-4.962a9.025,9.025,0,0,0,5.883-15.4Z" transform="translate(-693.272 -176.894)" fill="#ffbb63"/>
      </g>
      <g id="パス_81" data-name="パス 81" transform="translate(706.402 2074.085)" fill="none" stroke-linecap="square" stroke-linejoin="round">
        <path d="M734.914,176.036a9.116,9.116,0,0,0-1.473-1.19,9.032,9.032,0,0,0-14.653-10.03c-.038.037-.068.078-.1.115a9.023,9.023,0,0,0-13.431,9.759c-.254.2-.477.447-.736.658-4.272,3.46-4.586,8.8,0,12.779a12.591,12.591,0,0,0,1.18.908L699.913,194l11.592-2.469a8.962,8.962,0,0,0,2.361,4.178c3.529,3.528,10.076,4.223,13.605.694,1.22-1.22,2.2-3.666,1.559-4.962a9.025,9.025,0,0,0,5.883-15.4Z" stroke="none"/>
        <path d="M 725.1774291992188 162.1692352294922 C 722.864990234375 162.1692352294922 720.552490234375 163.0514373779297 718.7882690429688 164.8158264160156 C 718.7504272460938 164.8529357910156 718.7200927734375 164.89404296875 718.68408203125 164.9311828613281 C 717.2588500976563 164.0788269042969 715.649658203125 163.6518249511719 714.0415649414063 163.6518249511719 C 711.7337036132813 163.6518249511719 709.4275512695313 164.5306549072266 707.6659545898438 166.292724609375 C 705.386962890625 168.5713500976563 704.5884399414063 171.7630310058594 705.2532348632813 174.6901550292969 C 704.9990844726563 174.8938293457031 704.7759399414063 175.1375122070313 704.5167846679688 175.3476867675781 C 700.2446899414063 178.8072204589844 699.9303588867188 184.1474304199219 704.5159912109375 188.1268005371094 C 704.8966674804688 188.4570007324219 705.2907104492188 188.760498046875 705.695556640625 189.0351867675781 L 699.9130249023438 193.9972534179688 L 711.5054321289063 191.5279235839844 C 711.8882446289063 193.0581665039063 712.6697998046875 194.5087585449219 713.8662719726563 195.7059326171875 C 715.8028564453125 197.6419830322266 718.6483764648438 198.7249755859375 721.4049072265625 198.7249755859375 C 723.672119140625 198.7249755859375 725.87890625 197.9927215576172 727.4716186523438 196.4002075195313 C 728.69140625 195.1799926757813 729.6712646484375 192.7344665527344 729.0306396484375 191.4378051757813 C 731.1712036132813 191.3185119628906 733.278564453125 190.4515380859375 734.9144287109375 188.8153076171875 C 738.4431762695313 185.2861633300781 738.4431762695313 179.5657043457031 734.9136962890625 176.0358276367188 C 734.4566040039063 175.5794677734375 733.961669921875 175.1843872070313 733.4407958984375 174.8455200195313 C 734.8985595703125 171.5341186523438 734.280029296875 167.5284423828125 731.5665893554688 164.8158264160156 C 729.8024291992188 163.0514373779297 727.4899291992188 162.1692352294922 725.1774291992188 162.1692352294922 M 725.1774291992188 158.1692352294922 C 728.6596069335938 158.1692352294922 731.9332275390625 159.5252838134766 734.3952026367188 161.9875793457031 C 736.2898559570313 163.8816833496094 737.5387573242188 166.2744750976563 738.0062866210938 168.9066619873047 C 738.2775268554688 170.4341735839844 738.2759399414063 171.9790344238281 738.0084838867188 173.4815979003906 C 740.3030395507813 175.9123687744141 741.560791015625 179.0724639892578 741.5609130859375 182.4256896972656 C 741.56103515625 185.9075317382813 740.2051391601563 189.1811676025391 737.7429809570313 191.6435699462891 C 736.3662109375 193.0206756591797 734.7113647460938 194.0578460693359 732.903076171875 194.6993865966797 C 732.8521728515625 194.8799285888672 732.7953491210938 195.0617065429688 732.7327270507813 195.2445220947266 C 732.2188110351563 196.7440490722656 731.332275390625 198.1960296630859 730.300537109375 199.2281494140625 C 728.0451049804688 201.4833374023438 724.8861083984375 202.7249603271484 721.4049072265625 202.7249603271484 C 719.5372924804688 202.7249603271484 717.619384765625 202.3572998046875 715.8585205078125 201.6617126464844 C 714.0280151367188 200.9386291503906 712.3612060546875 199.8573455810547 711.0382690429688 198.5347747802734 C 710.3096313476563 197.8057098388672 709.6735229492188 196.9948577880859 709.1407470703125 196.1213684082031 L 700.7463989257813 197.9094848632813 C 700.4677124023438 197.9688415527344 700.1880493164063 197.9976043701172 699.911865234375 197.9976043701172 C 698.4153442382813 197.9976043701172 697.0125732421875 197.1548156738281 696.3280029296875 195.7713623046875 C 695.5169677734375 194.1325531005859 695.9205322265625 192.1524353027344 697.3081665039063 190.9616851806641 L 699.7443237304688 188.8711700439453 C 698.0411376953125 186.6385955810547 697.1507568359375 184.0900573730469 697.1952514648438 181.4767608642578 C 697.2481689453125 178.3695983886719 698.6013793945313 175.4329223632813 701.0345458984375 173.0906677246094 C 700.9927368164063 171.7733764648438 701.1486206054688 170.4515228271484 701.5009155273438 169.1801300048828 C 702.09765625 167.0266723632813 703.25146484375 165.0500793457031 704.8377685546875 163.4640655517578 C 707.2952880859375 161.0059051513672 710.5641479492188 159.6518096923828 714.0415649414063 159.6518096923828 C 715.4105224609375 159.6518096923828 716.7642822265625 159.8665618896484 718.0540161132813 160.2826080322266 C 720.1536865234375 158.9070739746094 722.6087646484375 158.1692352294922 725.1774291992188 158.1692352294922 Z" stroke="none" fill="#707070"/>
      </g>
    </g>
  </g>
</svg>
