<svg xmlns="http://www.w3.org/2000/svg" width="190" height="190" viewBox="0 0 190 190">
  <g id="index_treatment02" transform="translate(-10 -10)">
    <circle id="楕円形_12" data-name="楕円形 12" cx="95" cy="95" r="95" transform="translate(10 10)" fill="#f9f6ef"/>
    <g id="_" data-name="ｄｄ" transform="translate(-770.977 -1382.748)">
      <path id="パス_4" data-name="パス 4" d="M910,1475.633a4.2,4.2,0,0,0-2.238-5.3,19.054,19.054,0,0,1-9.929-24.1,3.783,3.783,0,0,0-3.42-5.13,24.727,24.727,0,0,0-14.081,4.087,4.671,4.671,0,0,1-5.093,0c-8.462-5.489-21.783-7.066-30.752,5.491-6.35,8.89,1.164,24.872,2.858,29.529s-.4,15.612.529,23.6c1.058,9.1,7.45,19.275,12.107,19.275s5.635-29.436,17.807-29.436,13.15,29.436,17.807,29.436,11.048-10.173,12.107-19.275c.929-7.99-1.164-18.945.529-23.6C908.6,1479.171,909.264,1477.58,910,1475.633Z" transform="translate(0)" fill="#fff" stroke="#767777" stroke-linecap="round" stroke-linejoin="round" stroke-width="4"/>
      <path id="パス_73" data-name="パス 73" d="M880.56,1445s-5.25,7.833-5.083,9.667,9.167,5.667,10.5,5.25-4.917,9.75-3.417,11.917,15.75,2.5,15.75,2.5-7,9.75-5.417,11,14.667,1.333,14.667,1.333l2.167-12.75s-6.333-5.917-7.083-7.25-6.25-12.25-6.25-12.667.167-12.5,0-13S880.56,1445,880.56,1445Z" fill="#ffbb63"/>
      <path id="パス_74" data-name="パス 74" d="M883.59,1438.075s-6.742,13.583-6.639,14.723,4.369,1.776,5.2,1.517-1.606,7.3-.674,8.646,6.3-.928,6.3-.928-1.257,6.908-.272,7.686,9.487-3.614,12.1-5.389-2.831-2.875-2.831-2.875a53.269,53.269,0,0,1-4.405-4.509c-.466-.829-3.887-7.619-3.887-7.878s-4.834-13.126-4.938-13.437A20.129,20.129,0,0,0,883.59,1438.075Z" transform="translate(1071.338 3177.758) rotate(-156)" fill="#ffbb63"/>
      <path id="パス_71" data-name="パス 71" d="M910,1475.633a4.2,4.2,0,0,0-2.238-5.3,19.054,19.054,0,0,1-9.929-24.1,3.783,3.783,0,0,0-3.42-5.13,24.727,24.727,0,0,0-14.081,4.087,4.671,4.671,0,0,1-5.093,0c-8.462-5.489-21.783-7.066-30.752,5.491-6.35,8.89,1.164,24.872,2.858,29.529s-.4,15.612.529,23.6c1.058,9.1,7.45,19.275,12.107,19.275s5.635-29.436,17.807-29.436,13.15,29.436,17.807,29.436,11.048-10.173,12.107-19.275c.929-7.99-1.164-18.945.529-23.6C908.6,1479.171,909.264,1477.58,910,1475.633Z" transform="translate(0)" fill="none" stroke="#767777" stroke-linecap="round" stroke-linejoin="round" stroke-width="4"/>
    </g>
  </g>
</svg>
