<svg xmlns="http://www.w3.org/2000/svg" width="190" height="190" viewBox="0 0 190 190">
  <g id="index_treatment03" transform="translate(-10 -10)">
    <circle id="楕円形_11" data-name="楕円形 11" cx="95" cy="95" r="95" transform="translate(10 10)" fill="#f9f6ef"/>
    <g id="グループ_6" data-name="グループ 6" transform="translate(-1718.352 -483.212)">
      <path id="パス_11" data-name="パス 11" d="M1873.846,643.16c-22.58,3.229-20.516-19.14-50.247-19.14s-31.681,21.965-50.247,19.14v37.981h100.494Z" transform="translate(0 -57.626)" fill="#ffbb63"/>
      <path id="パス_12" data-name="パス 12" d="M1866.107,585.356c7.181,7.111-9.438,25.05-6.69,27.771s12.462.452,18.4-4.3c5.216-4.172,10.381-11.858,14.1-13.617s17.49-6.8,18.937-15.753c2.044-12.648-6.736-19.5-14.936-21.205a3.89,3.89,0,0,1-3.008-2.979c-1.786-8.182-8.725-16.894-21.352-14.725-8.94,1.535-13.843,15.355-15.565,19.092s-9.356,8.978-13.476,14.235c-4.693,5.989-6.865,15.725-4.118,18.446S1858.926,578.245,1866.107,585.356Z" transform="translate(-43.898)" fill="#fff" stroke="#767777" stroke-linecap="round" stroke-linejoin="round" stroke-width="4"/>
      <path id="パス_13" data-name="パス 13" d="M1985.887,579.05c1.253,3.211,2.831,7.728,5.718,10.587s7.221,3.456,9.578,4.558" transform="translate(-146.138 -26.705)" fill="rgba(0,0,0,0)" stroke="#ffbb63" stroke-linecap="round" stroke-linejoin="round" stroke-width="4"/>
    </g>
  </g>
</svg>
