<svg xmlns="http://www.w3.org/2000/svg" width="190" height="190" viewBox="0 0 190 190">
  <g id="index_treatment09" transform="translate(-10 -10)">
    <circle id="楕円形_7" data-name="楕円形 7" cx="95" cy="95" r="95" transform="translate(10 10)" fill="#f9f6ef"/>
    <g id="うぇ" transform="translate(-1222.736 -1295.455)">
      <path id="パス_39" data-name="パス 39" d="M1292.266,1405.654c-4.134-3.41-6.53-8.105-6.53-14.454,0-17.678,18.585-36.745,41.511-36.745s41.511,17.884,41.511,35.562a18.947,18.947,0,0,1-8.791,16.538" transform="translate(0 0)" fill="#fff" stroke="#767777" stroke-linecap="round" stroke-linejoin="round" stroke-width="4"/>
      <path id="パス_40" data-name="パス 40" d="M1355.4,1396.517c.008.054-3.687,2.415-2.308,6.514.858,2.551,3.438,5.354,2.333,9.665-.8,3.126-3.635,4.616-8.69,4.58-4.948-.036-7.949-1.787-8.718-4.58-1.014-3.681,1.469-6.926,2.362-9.665,1.34-4.112-2.316-6.46-2.308-6.514-15.668,1.761-23.674,14.706-23.674,24.568,0,4.754,2.259,7.281,6.292,8.623,7.971-11.568,18.91-10.855,26.881-6.359,7.361-4.66,20.984-3.17,25.347,6.081,4.1-1.4,6.534-3.906,6.534-8.345C1379.451,1411.223,1371.068,1398.279,1355.4,1396.517Z" transform="translate(-19.489 -28.601)" fill="#ffbb63"/>
      <path id="パス_41" data-name="パス 41" d="M1371.8,1494.483c-9.09,26.967-24.616,33.106-41.582,29.689-15.471-3.116-20.961-19.781-15.08-35.143,7.835-20.468,21.759-20.544,31.369-15.124C1356.74,1467.424,1379.092,1472.837,1371.8,1494.483Z" transform="translate(-18.422 -79.157)" fill="#fff" stroke="#767777" stroke-linecap="round" stroke-linejoin="round" stroke-width="4"/>
      <path id="パス_42" data-name="パス 42" d="M1386.768,1496.084c-5.3,2.894-11.861,16.817-11.681,23.5" transform="translate(-60.753 -96.303)" fill="rgba(0,0,0,0)" stroke="#767777" stroke-linecap="round" stroke-linejoin="round" stroke-width="4"/>
    </g>
  </g>
</svg>
