<svg xmlns="http://www.w3.org/2000/svg" width="65.641" height="49.681" viewBox="0 0 65.641 49.681">
  <g id="chara" transform="translate(-28.015 230.534)">
    <path id="パス_1126" data-name="パス 1126" d="M38.5-225.663a.448.448,0,0,1-.441-.373.447.447,0,0,1,.366-.516L43-227.33a14.026,14.026,0,0,1-.078-1.735l-4.778.813a.447.447,0,0,1-.516-.366.447.447,0,0,1,.366-.516l5.317-.905a.443.443,0,0,1,.374.108.447.447,0,0,1,.149.359,13.32,13.32,0,0,0,.114,2.535.447.447,0,0,1-.076.335.447.447,0,0,1-.291.183l-5,.85a.462.462,0,0,1-.076.007Z" transform="translate(-6.471 -0.328)" fill="#FFBB63"/>
    <path id="パス_1127" data-name="パス 1127" d="M40.757-217.632a.448.448,0,0,1-.441-.373.447.447,0,0,1,.366-.516l4.762-.811a11.306,11.306,0,0,1-.57-2.107.447.447,0,0,1,.366-.517.446.446,0,0,1,.516.366,9.681,9.681,0,0,0,.72,2.405.446.446,0,0,1,0,.4.448.448,0,0,1-.324.238l-5.319.905a.43.43,0,0,1-.076.007Z" transform="translate(-8.285 -5.776)" fill="#FFBB63"/>
    <path id="パス_1128" data-name="パス 1128" d="M41.2-209.826a.447.447,0,0,1-.441-.372.448.448,0,0,1,.366-.517l4.566-.779a13.791,13.791,0,0,1-.078-1.733l-4.78.813a.447.447,0,0,1-.516-.366.447.447,0,0,1,.366-.516L46-214.2a.442.442,0,0,1,.373.108.448.448,0,0,1,.149.359,13.232,13.232,0,0,0,.113,2.532.452.452,0,0,1-.075.335.449.449,0,0,1-.291.183l-5,.853a.428.428,0,0,1-.076.007Z" transform="translate(-8.285 -11)" fill="#FFBB63"/>
    <path id="パス_1129" data-name="パス 1129" d="M43.453-201.8a.448.448,0,0,1-.44-.372.448.448,0,0,1,.366-.517l4.761-.81a11.465,11.465,0,0,1-.569-2.107.448.448,0,0,1,.366-.517.446.446,0,0,1,.517.366,9.832,9.832,0,0,0,.719,2.408.447.447,0,0,1,0,.4.447.447,0,0,1-.323.238l-5.317.9a.459.459,0,0,1-.076.007Z" transform="translate(-10.102 -16.442)" fill="#FFBB63"/>
    <g id="グループ_366" data-name="グループ 366" transform="translate(28.015 -230.534)">
      <g id="グループ_360" data-name="グループ 360" transform="translate(0.589 23.034)">
        <path id="パス_1130" data-name="パス 1130" d="M53.6-146.4l-1.14-6.044c-3.837.33-7.6.344-8.682.369a5.961,5.961,0,0,0-5.863-5.626,5.978,5.978,0,0,0-5.881,6.07,5.978,5.978,0,0,0,5.881,6.071,5.775,5.775,0,0,0,4.313-1.953A55.867,55.867,0,0,0,53.6-146.4Z" transform="translate(-31.311 158.423)" fill="#FFBB63"/>
        <path id="パス_1131" data-name="パス 1131" d="M36.424-146.33a6.707,6.707,0,0,1-6.6-6.792,6.706,6.706,0,0,1,6.6-6.79,6.683,6.683,0,0,1,6.5,5.615c1.556-.024,4.738-.076,7.983-.355l.649-.056,1.423,7.547-.877-.008a58.471,58.471,0,0,1-11.123-1.045,6.515,6.515,0,0,1-4.555,1.884Zm0-12.14a5.263,5.263,0,0,0-5.16,5.348,5.263,5.263,0,0,0,5.16,5.349,5.021,5.021,0,0,0,3.776-1.713l.283-.316.414.094a53.72,53.72,0,0,0,10.339,1.083l-.856-4.539c-3.088.239-6.015.285-7.472.308l-1.292.026-.048-.686a5.256,5.256,0,0,0-5.143-4.956Z" transform="translate(-29.822 159.912)" fill="#FFBB63"/>
      </g>
      <g id="グループ_361" data-name="グループ 361" transform="translate(0 0)">
        <path id="パス_1132" data-name="パス 1132" d="M38.5-225.663a.448.448,0,0,1-.441-.373.447.447,0,0,1,.366-.516L43-227.33a14.026,14.026,0,0,1-.078-1.735l-4.778.813a.447.447,0,0,1-.516-.366.447.447,0,0,1,.366-.516l5.317-.905a.443.443,0,0,1,.374.108.447.447,0,0,1,.149.359,13.32,13.32,0,0,0,.114,2.535.447.447,0,0,1-.076.335.447.447,0,0,1-.291.183l-5,.85a.462.462,0,0,1-.076.007Z" transform="translate(-34.486 230.206)" fill="#FFBB63"/>
        <path id="パス_1133" data-name="パス 1133" d="M40.757-217.632a.448.448,0,0,1-.441-.373.447.447,0,0,1,.366-.516l4.762-.811a11.306,11.306,0,0,1-.57-2.107.447.447,0,0,1,.366-.517.446.446,0,0,1,.516.366,9.681,9.681,0,0,0,.72,2.405.446.446,0,0,1,0,.4.448.448,0,0,1-.324.238l-5.319.905a.43.43,0,0,1-.076.007Z" transform="translate(-36.3 224.758)" fill="#FFBB63"/>
        <path id="パス_1134" data-name="パス 1134" d="M41.2-209.826a.447.447,0,0,1-.441-.372.448.448,0,0,1,.366-.517l4.566-.779a13.791,13.791,0,0,1-.078-1.733l-4.78.813a.447.447,0,0,1-.516-.366.447.447,0,0,1,.366-.516L46-214.2a.442.442,0,0,1,.373.108.448.448,0,0,1,.149.359,13.232,13.232,0,0,0,.113,2.532.452.452,0,0,1-.075.335.449.449,0,0,1-.291.183l-5,.853a.428.428,0,0,1-.076.007Z" transform="translate(-36.3 219.533)" fill="#FFBB63"/>
        <path id="パス_1135" data-name="パス 1135" d="M43.453-201.8a.448.448,0,0,1-.44-.372.448.448,0,0,1,.366-.517l4.761-.81a11.465,11.465,0,0,1-.569-2.107.448.448,0,0,1,.366-.517.446.446,0,0,1,.517.366,9.832,9.832,0,0,0,.719,2.408.447.447,0,0,1,0,.4.447.447,0,0,1-.323.238l-5.317.9a.459.459,0,0,1-.076.007Z" transform="translate(-38.116 214.092)" fill="#FFBB63"/>
        <path id="パス_1136" data-name="パス 1136" d="M39.479-182.986a1.832,1.832,0,0,1-1.5,2.108,1.833,1.833,0,0,1-2.107-1.5L28.041-228.4a1.834,1.834,0,0,1,1.5-2.109,1.832,1.832,0,0,1,2.108,1.495Z" transform="translate(-28.015 230.534)" fill="#FFBB63"/>
      </g>
      <g id="グループ_362" data-name="グループ 362" transform="translate(3.674 27.017)">
        <path id="パス_1137" data-name="パス 1137" d="M41.17-138.8c4.525-.44,3.238-7.613-.194-7.187" transform="translate(-40.423 146.558)" fill="#FFBB63"/>
        <path id="パス_1138" data-name="パス 1138" d="M40.027-139.39a.552.552,0,0,1-.549-.5.552.552,0,0,1,.5-.6,2.438,2.438,0,0,0,2.134-1.462,4.052,4.052,0,0,0-.452-3.775,1.88,1.88,0,0,0-1.754-.851.549.549,0,0,1-.617-.48.553.553,0,0,1,.48-.616,2.927,2.927,0,0,1,2.778,1.289,5.161,5.161,0,0,1,.575,4.883,3.542,3.542,0,0,1-3.036,2.113.5.5,0,0,1-.054,0Z" transform="translate(-39.28 147.701)" fill="#FFBB63"/>
      </g>
      <g id="グループ_363" data-name="グループ 363" transform="translate(6.242 23.852)">
        <path id="パス_1139" data-name="パス 1139" d="M48.73-152.422c0,1.879.949,3.4,2.12,3.4s2.121-1.523,2.121-3.4-.949-3.4-2.121-3.4S48.73-154.3,48.73-152.422Z" transform="translate(-48.215 156.341)" fill="#FFBB63"/>
        <path id="パス_1140" data-name="パス 1140" d="M49.786-149.569c-1.478,0-2.635-1.72-2.635-3.917s1.158-3.919,2.635-3.919,2.636,1.721,2.636,3.919-1.158,3.917-2.636,3.917Zm0-6.806c-.775,0-1.605,1.161-1.605,2.889,0,1.538.75,2.887,1.605,2.887s1.606-1.349,1.606-2.887c0-1.728-.83-2.889-1.606-2.889Z" transform="translate(-47.151 157.405)" fill="#FFBB63"/>
      </g>
      <path id="パス_1141" data-name="パス 1141" d="M131.937-174.516H94.576a3.936,3.936,0,0,0-3.925,3.925v23.231a3.937,3.937,0,0,0,3.925,3.925h37.361a3.937,3.937,0,0,0,3.925-3.925v-23.231A3.936,3.936,0,0,0,131.937-174.516Zm-8.09,22.294a2.362,2.362,0,0,1-2.355,2.355H105.021a2.362,2.362,0,0,1-2.355-2.355V-165.73a2.362,2.362,0,0,1,2.355-2.355h16.472a2.362,2.362,0,0,1,2.355,2.355Z" transform="translate(-70.221 192.787)" fill="#FFBB63"/>
      <g id="グループ_364" data-name="グループ 364" transform="translate(26.22 2.272)">
        <path id="パス_1142" data-name="パス 1142" d="M115.031-210.31a6.637,6.637,0,0,1-6.629-6.629,6.637,6.637,0,0,1,6.629-6.629,6.637,6.637,0,0,1,6.63,6.629,6.637,6.637,0,0,1-6.63,6.629Zm0-11.582a4.959,4.959,0,0,0-4.954,4.953,4.959,4.959,0,0,0,4.954,4.953,4.96,4.96,0,0,0,4.955-4.953,4.96,4.96,0,0,0-4.955-4.953Z" transform="translate(-108.402 223.567)" fill="#FFBB63"/>
      </g>
      <path id="パス_1143" data-name="パス 1143" d="M128.826-210.6a2.426,2.426,0,0,1-2.429,2.429,2.425,2.425,0,0,1-2.425-2.429,2.426,2.426,0,0,1,2.425-2.427A2.427,2.427,0,0,1,128.826-210.6Z" transform="translate(-92.673 218.735)" fill="#FFBB63"/>
      <g id="グループ_365" data-name="グループ 365" transform="translate(46.593 2.272)">
        <path id="パス_1144" data-name="パス 1144" d="M177.494-210.31a6.636,6.636,0,0,1-6.629-6.629,6.636,6.636,0,0,1,6.629-6.629,6.637,6.637,0,0,1,6.629,6.629,6.637,6.637,0,0,1-6.629,6.629Zm0-11.582a4.959,4.959,0,0,0-4.953,4.953,4.959,4.959,0,0,0,4.953,4.953,4.959,4.959,0,0,0,4.954-4.953,4.959,4.959,0,0,0-4.954-4.953Z" transform="translate(-170.865 223.567)" fill="#FFBB63"/>
      </g>
      <path id="パス_1145" data-name="パス 1145" d="M191.293-210.6a2.428,2.428,0,0,1-2.434,2.429,2.425,2.425,0,0,1-2.424-2.429,2.426,2.426,0,0,1,2.424-2.427A2.429,2.429,0,0,1,191.293-210.6Z" transform="translate(-134.764 218.735)" fill="#FFBB63"/>
    </g>
  </g>
</svg>
