<svg id="header_logo" xmlns="http://www.w3.org/2000/svg" width="240" height="54.239" viewBox="0 0 240 54.239">
  <g id="アートワーク_2" data-name="アートワーク 2" transform="translate(120 27.119)">
    <g id="グループ_119" data-name="グループ 119" transform="translate(-120 -27.119)">
      <g id="グループ_106" data-name="グループ 106" transform="translate(82.289 20.061)">
        <path id="パス_208" data-name="パス 208" d="M405.777,83.438a1.238,1.238,0,1,1-1.238-1.238,1.238,1.238,0,0,1,1.238,1.238Z" transform="translate(-342.869 -73.001)" fill="#3a5aa7"/>
        <path id="パス_209" data-name="パス 209" d="M428.277,83.438a1.238,1.238,0,1,1-1.238-1.238A1.238,1.238,0,0,1,428.277,83.438Z" transform="translate(-357.408 -73.001)" fill="#3a5aa7"/>
        <rect id="長方形_174" data-name="長方形 174" width="1.734" height="3.8" transform="translate(64.712 11.711)" fill="#66b821"/>
        <path id="パス_210" data-name="パス 210" d="M406.162,101.8c-3.467,0-6.263-2.335-6.263-5.2h1.663c0,1.946,2.052,3.538,4.6,3.538s4.6-1.592,4.6-3.538h1.663C412.425,99.466,409.63,101.8,406.162,101.8Z" transform="translate(-340.672 -82.306)" fill="#f41c70"/>
        <g id="グループ_105" data-name="グループ 105">
          <path id="パス_211" data-name="パス 211" d="M253.587,58.9v5.413H236.6v5.2a23.683,23.683,0,0,1-2.441,11.428L232.5,79.456a21.607,21.607,0,0,0,2.158-10.048V58.9Zm-1.911,1.628H236.6v2.158h15.072ZM245.45,69.8l7.819-.566v1.663l-7.89.637v1.946l9.093-.672v1.769l-9.128.708V77.44c0,1.026.142,1.168,1.238,1.168h4.812c1.168,0,1.168-.283,1.309-2.83l1.875.354c-.142,3.715-.531,4.423-2.831,4.423H245.7c-.743,0-2.087,0-2.087-2.123V75.423l-6.546.5-.106-1.769,6.687-.5V71.673l-5.944.46-.106-1.769,6.05-.425V68.028c-3.078.318-4.741.389-5.8.425l-.389-1.734A67.118,67.118,0,0,0,252.1,64.844l.743,1.592a50.062,50.062,0,0,1-7.395,1.344Z" transform="translate(-232.5 -57.945)"/>
          <path id="パス_212" data-name="パス 212" d="M333.3,66.036v1.769h-1.238v9.482c0,.708,0,1.875-1.8,1.875h-3.432l-.283-1.946h2.9c.743,0,.743-.354.743-.92V67.805H319.748v9.977H312V59.667h1.628v16.2h1.451V56.2h1.628V75.872h1.451v-16.2h1.592v6.369Zm-13.056-2.3c1.168-.46,3.573-1.344,4.6-3.609h-4.316V58.358h4.812a13.061,13.061,0,0,0,.177-2.123h1.911a12.838,12.838,0,0,1-.212,2.123h5.661v1.769h-4.529c1.026,1.663,2.087,2.654,4.812,3.644l-.778,1.84a10.473,10.473,0,0,1-5.732-5.236,9.272,9.272,0,0,1-5.484,5.2ZM328.2,75.872h-6.793v-6.51h6.829Zm-1.663-4.883h-3.4v3.255h3.4Z" transform="translate(-283.872 -56.2)"/>
          <path id="パス_213" data-name="パス 213" d="M392.726,57.426v4.529h4.493V56.4h1.946v1.8h8.244v1.769h-8.244v1.946h9.659v1.769H387.1V61.919h3.715V57.426Zm-4.953,7.324h1.911v12.7H406.17V64.715h1.946V79.292H387.808Z" transform="translate(-332.401 -56.329)"/>
          <path id="パス_214" data-name="パス 214" d="M468.7,62.81h3.114v1.875H468.7V65a22.466,22.466,0,0,0,3.255,4.493l-1.1,1.769a19.35,19.35,0,0,1-2.158-3.574v11.57h-1.84V67.87a20.557,20.557,0,0,1-3.75,6.3l-.814-2.158a23.751,23.751,0,0,0,4.387-7.324h-4V62.81h4.14V59.166a32.114,32.114,0,0,1-3.856.283l-.389-1.84A29.081,29.081,0,0,0,471,56.3l.849,1.84a29.228,29.228,0,0,1-3.149.708Zm15.709,6.475.248,1.946-2.512.566v7.43h-1.911V72.222l-8.244,1.8-.248-1.946,8.491-1.875V56.3h1.911V69.78Z" transform="translate(-380.994 -56.265)"/>
          <path id="パス_215" data-name="パス 215" d="M562.515,59.3v1.911H544.081V79.255h18.434V81.13H542.1V59.3Zm-.955,9.942v1.84h-6.581c1.132,2.194,3.75,3.892,7.076,4.776l-1.026,1.911c-5.2-1.734-7.041-4.529-7.713-6.156-.849,2.052-2.689,4.741-7.218,6.3l-1.132-1.8c1.274-.389,5.06-1.557,6.652-4.989h-6.4V69.242h7.005a7.287,7.287,0,0,0,.106-1.344V66.022h-3.4a12.453,12.453,0,0,1-2.3,2.76l-1.521-1.309a11.738,11.738,0,0,0,3.786-5.626l1.875.425a16.437,16.437,0,0,1-.849,1.911h10.72v1.84H554.2l-.071,1.875a9.028,9.028,0,0,1-.141,1.344Z" transform="translate(-432.56 -58.203)"/>
          <path id="パス_216" data-name="パス 216" d="M623.8,57.008v1.7a36.514,36.514,0,0,1-2.052,5.979,9.518,9.518,0,0,1,2.052,5.838c0,.743,0,3.644-2.724,3.644h-2.052l-.283-1.981h2.087c1.062,0,1.2-1.2,1.2-1.946a9.414,9.414,0,0,0-2.088-5.484,28.057,28.057,0,0,0,2.017-5.979H619.24V79.262H617.4V57.008Zm10.013,12.277v7.076c0,.425,0,.814.672.814h1.274c.778,0,1.062,0,1.2-3.361l1.84.5c-.283,4.387-.6,4.706-2.477,4.706h-2.512c-1.734,0-1.84-.531-1.84-2.371V69.32h-2.335c-.106,7.182-4.1,9.093-6.369,9.871l-.885-1.8c2.972-.92,5.307-2.9,5.307-8.067h-3.538V67.445h14.506V69.32ZM632.154,56.3v2.3h5.979v5.2h-1.84V60.44H626.139V63.8h-1.8V58.6h5.944V56.3Zm-5.661,8.456v-1.8h9.376v1.8Z" transform="translate(-481.218 -56.265)"/>
          <path id="パス_217" data-name="パス 217" d="M500.692,62.846a1.946,1.946,0,1,1-1.946-1.946A1.946,1.946,0,0,1,500.692,62.846Z" transform="translate(-403.288 -59.237)"/>
          <path id="パス_218" data-name="パス 218" d="M496.992,81.346a1.946,1.946,0,1,1-1.946-1.946A1.946,1.946,0,0,1,496.992,81.346Z" transform="translate(-400.897 -71.192)"/>
        </g>
      </g>
      <g id="グループ_107" data-name="グループ 107" transform="translate(83.279 3.927)">
        <path id="パス_219" data-name="パス 219" d="M245.242,11.8v.92h-8.951V21.6h9.2v.92H235.3V11.8Zm-.46,4.918V17.6H241.6a5.373,5.373,0,0,0,3.432,2.335l-.5.92c-2.512-.849-3.432-2.194-3.75-3.007a5.406,5.406,0,0,1-3.5,3.043l-.566-.885a4.879,4.879,0,0,0,3.22-2.441h-3.149v-.849h3.4a3.718,3.718,0,0,0,.071-.637v-.955h-1.628a5.908,5.908,0,0,1-1.132,1.344l-.743-.637a5.8,5.8,0,0,0,1.84-2.724l.92.212a8.21,8.21,0,0,1-.425.92h5.166v.885h-3.043v.92a3.746,3.746,0,0,1-.071.637Z" transform="translate(-235.3 -11.375)"/>
        <path id="パス_220" data-name="パス 220" d="M273.763,11.591h3.963V10.6h.92v.991h4.246v.849h-8.244v3.255c0,3.963-1.238,5.519-1.7,6.086l-.708-.637a6.644,6.644,0,0,0,1.38-3.786,11.784,11.784,0,0,1-1.344.814l-.177-.991a14.3,14.3,0,0,0,1.628-.743v-.743Zm-1.026,3.432a12.492,12.492,0,0,0-.6-2.194l.708-.354a9.232,9.232,0,0,1,.672,2.158Zm1.521,5.732a5.307,5.307,0,0,0,2.3-1.486l.672.566a6.4,6.4,0,0,1-2.441,1.7Zm7.465-1.734h-2.512v1.946c0,.743-.5.778-.849.778h-1.238l-.212-.885h1.1c.212,0,.248-.035.248-.283V19.021H275.78V16.544l-.566.354-.5-.708a7.75,7.75,0,0,0,1.1-.637,4.638,4.638,0,0,0-.743-.708l.531-.5a6.05,6.05,0,0,1,.778.778,5.45,5.45,0,0,0,.955-1.061h-2.3v-.778h2.76a5.622,5.622,0,0,0,.248-.708l.92.106-.248.6h4.175v.743H280.2a5.768,5.768,0,0,0,1.061,1.132c.318-.389.6-.743.743-.92l.637.425a11.3,11.3,0,0,1-.778.92,6.3,6.3,0,0,0,1.132.531l-.425.814-.885-.5Zm-.849-2.83h-4.246V16.9h4.246Zm0,1.38h-4.246v.743h4.246Zm-.389-2.087a7.217,7.217,0,0,1-1.2-1.451h-.955a6.756,6.756,0,0,1-1.2,1.451Zm.248,3.75a5.413,5.413,0,0,0,2.371,1.521l-.5.814a6.191,6.191,0,0,1-2.477-1.7Z" transform="translate(-259.08 -10.6)"/>
        <path id="パス_221" data-name="パス 221" d="M310.7,20.825a17.015,17.015,0,0,0,2.194-3.963l.743.6a20.986,20.986,0,0,1-2.335,4.281Zm1.911-4.812a6.369,6.369,0,0,0-1.875-1.274l.46-.849a6.9,6.9,0,0,1,2.017,1.238Zm.531-3.184A7.5,7.5,0,0,0,311.2,11.52l.5-.814a8.528,8.528,0,0,1,2.017,1.238Zm5.979,4.776a17.16,17.16,0,0,1,2.335,3.786l-.885.5a10,10,0,0,0-.46-1.026,40.864,40.864,0,0,1-6.333.566l-.142-.955h.849a21.442,21.442,0,0,0,1.628-3.927h-2.371v-.92h3.326V13.36H314.2V12.4h2.866V10.6h.955v1.84H321v.92h-2.972v2.264h3.4v.92h-4.246a33.993,33.993,0,0,1-1.663,3.892c1.1-.035,2.9-.142,4.175-.318a15.745,15.745,0,0,0-1.345-1.981Z" transform="translate(-284.023 -10.6)"/>
        <path id="パス_222" data-name="パス 222" d="M354.05,10.7v1.451a11.888,11.888,0,0,0,1.132,4.953,8.563,8.563,0,0,0,3.786,3.75l-.672.955a9.683,9.683,0,0,1-4.776-6.722,9.067,9.067,0,0,1-4.847,6.687l-.672-.92a8.264,8.264,0,0,0,4.069-4.175,14.574,14.574,0,0,0,.92-4.564V10.7Z" transform="translate(-308.125 -10.665)"/>
      </g>
      <g id="グループ_110" data-name="グループ 110" transform="translate(83.032 49.25)">
        <g id="グループ_109" data-name="グループ 109">
          <g id="グループ_108" data-name="グループ 108" transform="translate(0 0.034)">
            <path id="パス_223" data-name="パス 223" d="M240.686,143.255h-5.661a.425.425,0,0,1-.425-.425v-3.644a.389.389,0,0,1,.425-.389h5.661a.389.389,0,0,1,.389.389v3.644a.389.389,0,0,1-.389.425Zm-1.2-3.255a.389.389,0,0,0-.389-.389h-2.441a.389.389,0,0,0-.389.389v2.017a.425.425,0,0,0,.389.425h2.441a.389.389,0,0,0,.389-.425Z" transform="translate(-234.6 -138.795)"/>
            <path id="パス_224" data-name="パス 224" d="M268.335,143.258h-5.413c-.283,0-.354-.177-.141-.389l2.972-2.972c.142-.142.106-.283-.106-.283h-2.689a.407.407,0,0,1,0-.814h5.272c.283,0,.389.177.142.389l-2.972,2.972c-.142.142-.106.283.106.283h2.831a.407.407,0,0,1,0,.814Z" transform="translate(-252.661 -138.798)"/>
            <path id="パス_225" data-name="パス 225" d="M296.552,143.258h-1.1a.779.779,0,0,1-.6-.354l-.071-.106a.778.778,0,0,0-.6-.354H291.6a.778.778,0,0,0-.6.354l-.071.106a.778.778,0,0,1-.6.354h-.389c-.212,0-.318-.142-.212-.354l2.158-3.75a.778.778,0,0,1,.6-.354h1.486a.778.778,0,0,1,.6.354l2.158,3.75C296.836,143.081,296.765,143.258,296.552,143.258Zm-3.432-3.4c-.106-.212-.283-.212-.425,0l-.814,1.415c-.106.212-.035.354.212.354h1.628c.212,0,.318-.142.212-.354Z" transform="translate(-270.193 -138.798)"/>
            <path id="パス_226" data-name="パス 226" d="M325.147,143.255h-1.2a1.238,1.238,0,0,1-.708-.283l-1.486-1.238a.566.566,0,0,0-.637-.035l-.071.071a.885.885,0,0,0-.318.637v.425a.389.389,0,0,1-.425.425h-.814a.389.389,0,0,1-.389-.425v-3.644a.389.389,0,0,1,.389-.389h.814a.389.389,0,0,1,.425.389v1.274c0,.212.142.318.318.177l2.3-1.628a1.486,1.486,0,0,1,.743-.212h.814c.212,0,.248.106.071.212l-2.087,1.451a.283.283,0,0,0-.035.5l2.406,2.017C325.395,143.114,325.359,143.255,325.147,143.255Z" transform="translate(-289.2 -138.795)"/>
            <path id="パス_227" data-name="パス 227" d="M347.3,143.258h-.814a.389.389,0,0,1-.389-.425v-3.644a.389.389,0,0,1,.389-.389h.814a.425.425,0,0,1,.425.389v3.644A.425.425,0,0,1,347.3,143.258Z" transform="translate(-306.647 -138.798)"/>
            <path id="パス_228" data-name="パス 228" d="M408.8,143.258h-5.413a.389.389,0,0,1-.389-.425v-3.644a.389.389,0,0,1,.389-.389H408.8a.407.407,0,0,1,0,.814h-3.786a.389.389,0,0,0-.425.389v.212a.389.389,0,0,0,.425.389h3.5a.407.407,0,0,1,0,.814h-3.5a.389.389,0,0,0-.425.389v.212a.389.389,0,0,0,.425.425H408.8a.407.407,0,0,1,0,.814Z" transform="translate(-343.415 -138.798)"/>
            <path id="パス_229" data-name="パス 229" d="M435.847,143.258h-1.663a.991.991,0,0,1-.672-.318l-2.406-2.866c-.142-.177-.248-.142-.248.106v2.689a.389.389,0,0,1-.389.425h-.283a.389.389,0,0,1-.389-.425v-3.68a.389.389,0,0,1,.389-.389h1.628a1.026,1.026,0,0,1,.672.318l2.441,2.9c.141.177.248.142.248-.106v-2.724a.389.389,0,0,1,.389-.389h.283a.425.425,0,0,1,.424.389v3.644A.425.425,0,0,1,435.847,143.258Z" transform="translate(-360.733 -138.798)"/>
            <path id="パス_230" data-name="パス 230" d="M463.382,139.614h-1.628a.425.425,0,0,0-.389.389v2.831a.389.389,0,0,1-.389.425h-.814a.389.389,0,0,1-.389-.425V140a.425.425,0,0,0-.389-.389h-1.628a.407.407,0,0,1,0-.814h5.661a.407.407,0,0,1,0,.814Z" transform="translate(-378.538 -138.798)"/>
            <path id="パス_231" data-name="パス 231" d="M515.635,143.255h-5.413a.389.389,0,0,1-.425-.425v-3.644a.389.389,0,0,1,.425-.389h.814a.389.389,0,0,1,.425.389v2.83a.425.425,0,0,0,.424.425h3.786a.407.407,0,0,1,0,.814Z" transform="translate(-412.428 -138.795)"/>
            <path id="パス_232" data-name="パス 232" d="M558.1,143.258h-5.413a.389.389,0,0,1-.389-.425v-3.644a.389.389,0,0,1,.389-.389H558.1a.407.407,0,0,1,0,.814h-3.786a.389.389,0,0,0-.389.389v2.017a.389.389,0,0,0,.389.425H558.1a.407.407,0,0,1,0,.814Z" transform="translate(-439.891 -138.798)"/>
            <path id="パス_233" data-name="パス 233" d="M584.8,143.255h-5.413a.425.425,0,0,1-.389-.425v-3.644a.389.389,0,0,1,.389-.389h.814a.389.389,0,0,1,.425.389v2.83a.389.389,0,0,0,.389.425H584.8a.407.407,0,0,1,0,.814Z" transform="translate(-457.147 -138.795)"/>
            <path id="パス_234" data-name="パス 234" d="M606.838,143.258h-.814a.425.425,0,0,1-.425-.425v-3.644a.425.425,0,0,1,.425-.389h.814a.425.425,0,0,1,.389.389v3.644A.425.425,0,0,1,606.838,143.258Z" transform="translate(-474.336 -138.798)"/>
            <path id="パス_235" data-name="パス 235" d="M625.547,143.255h-1.663a.991.991,0,0,1-.672-.318l-2.406-2.866c-.142-.177-.248-.142-.248.106v2.689a.425.425,0,0,1-.424.425h-.248a.389.389,0,0,1-.389-.425v-3.68a.389.389,0,0,1,.389-.389h1.627a1.026,1.026,0,0,1,.672.318l2.441,2.9c.141.177.248.142.248-.106v-2.724a.425.425,0,0,1,.425-.389h.283a.389.389,0,0,1,.425.389v3.644a.389.389,0,0,1-.46.425Z" transform="translate(-483.315 -138.795)"/>
            <path id="パス_236" data-name="パス 236" d="M648.135,143.255h-.814a.389.389,0,0,1-.425-.425v-3.644a.389.389,0,0,1,.425-.389h.814a.389.389,0,0,1,.389.389v3.644a.389.389,0,0,1-.389.425Z" transform="translate(-501.02 -138.795)"/>
            <path id="パス_237" data-name="パス 237" d="M666.435,143.255h-5.413a.389.389,0,0,1-.425-.425v-3.644a.389.389,0,0,1,.425-.389H666.4a.407.407,0,0,1,0,.814h-3.75a.389.389,0,0,0-.425.389v2.017a.425.425,0,0,0,.425.425h3.786a.407.407,0,0,1,0,.814Z" transform="translate(-509.873 -138.795)"/>
          </g>
          <path id="パス_238" data-name="パス 238" d="M487.723,142.875l-2.264-3.892a.637.637,0,0,0-.5-.283h-1.592a.637.637,0,0,0-.5.283l-2.264,3.892c-.106.142-.035.283.177.283h.531a.672.672,0,0,0,.5-.283l.318-.531h3.432l.318.531a.637.637,0,0,0,.5.283h1.2C487.723,143.193,487.793,143.052,487.723,142.875Zm-5.13-1.344,1.238-2.087,1.238,2.087Z" transform="translate(-393.538 -138.7)"/>
        </g>
        <path id="パス_239" data-name="パス 239" d="M380.557,138.8h-4.67a.389.389,0,0,0-.389.389v3.644a.389.389,0,0,0,.389.425h4.67a1.415,1.415,0,0,0,1.415-1.415v-1.628A1.415,1.415,0,0,0,380.557,138.8Zm-.212,3.22a.425.425,0,0,1-.389.425h-2.441a.425.425,0,0,1-.389-.425V140a.425.425,0,0,1,.389-.389h2.441a.425.425,0,0,1,.389.389Z" transform="translate(-325.645 -138.765)"/>
      </g>
      <g id="グループ_118" data-name="グループ 118">
        <path id="パス_240" data-name="パス 240" d="M17.745,11.943a10.65,10.65,0,0,1-.778-2.618h0a14.329,14.329,0,0,1-.106-2.76h0V6.459a.5.5,0,0,0-.035-.142h0a10.508,10.508,0,0,1-.814-2.583h0a14.4,14.4,0,0,1-.106-2.76.5.5,0,0,0-.6-.5L9.537,1.47,8.9,1.612l2.229,12.03h.5l5.767-.991a.5.5,0,0,0,.354-.708Z" transform="translate(-5.724 -0.126)" fill="#fff"/>
        <path id="パス_241" data-name="パス 241" d="M10.7,5.23a.5.5,0,0,1-.071-.955l4.953-.849a15.248,15.248,0,0,1-.071-1.875l-5.2.885a.5.5,0,0,1-.177-.955L15.9.489a.489.489,0,0,1,.566.5,14.4,14.4,0,0,0,.142,2.76.5.5,0,0,1-.389.566l-5.449.92Z" transform="translate(-6.318 -0.136)" fill="#ff990a"/>
        <path id="パス_242" data-name="パス 242" d="M12.961,13.006a.5.5,0,0,1-.071-.955l5.13-.885a12.277,12.277,0,0,1-.6-2.3.5.5,0,1,1,.955-.142,10.508,10.508,0,0,0,.778,2.618.5.5,0,0,1-.354.708l-5.767.955Z" transform="translate(-8.086 -5.116)" fill="#ff990a"/>
        <path id="パス_243" data-name="パス 243" d="M13.049,21.066a.5.5,0,0,1-.071-.955l4.953-.849a15.037,15.037,0,0,1-.071-1.875l-5.2.849a.5.5,0,1,1-.177-.955l5.767-.991a.489.489,0,0,1,.566.5,14.329,14.329,0,0,0,.106,2.76.5.5,0,0,1-.389.566l-5.378.92Z" transform="translate(-7.714 -10.346)" fill="#ff990a"/>
        <path id="パス_244" data-name="パス 244" d="M15.661,29.247a.5.5,0,0,1-.071-.955l5.166-.885a12.454,12.454,0,0,1-.637-2.3.5.5,0,0,1,.955-.177,10.649,10.649,0,0,0,.778,2.618.5.5,0,0,1-.354.708l-5.767.991Z" transform="translate(-9.831 -15.732)" fill="#ff990a"/>
        <g id="グループ_117" data-name="グループ 117">
          <g id="グループ_111" data-name="グループ 111" transform="translate(0.664 25.156)">
            <path id="パス_245" data-name="パス 245" d="M27.387,85.077l-1.238-6.546c-4.14.354-8.244.354-9.411.389A6.475,6.475,0,0,0,10.369,72.8a6.584,6.584,0,0,0,0,13.162,6.262,6.262,0,0,0,4.67-2.123A60.184,60.184,0,0,0,27.387,85.077Z" transform="translate(-3.222 -72.022)" fill="#fff"/>
            <path id="パス_246" data-name="パス 246" d="M8.947,85.354a7.381,7.381,0,0,1,0-14.754,7.253,7.253,0,0,1,7.076,6.086c1.7-.035,5.13-.071,8.668-.389l.708-.071L26.956,84.4h-.991A63.439,63.439,0,0,1,13.9,83.3,7.076,7.076,0,0,1,8.947,85.354Zm0-13.2a5.807,5.807,0,0,0,0,11.605,5.449,5.449,0,0,0,4.1-1.875l.318-.354.46.106a57.239,57.239,0,0,0,11.216,1.168l-.955-4.883c-3.361.248-6.51.318-8.1.318h-1.38v-.708A5.7,5.7,0,0,0,8.947,72.157Z" transform="translate(-1.8 -70.6)"/>
          </g>
          <g id="グループ_112" data-name="グループ 112">
            <path id="パス_247" data-name="パス 247" d="M10.7,5.23a.5.5,0,0,1-.071-.955l4.953-.849a15.248,15.248,0,0,1-.071-1.875l-5.2.885a.5.5,0,0,1-.177-.955L15.9.489a.489.489,0,0,1,.566.5,14.4,14.4,0,0,0,.142,2.76.5.5,0,0,1-.389.566l-5.449.92Z" transform="translate(-6.318 -0.136)" fill="#ff990a"/>
            <path id="パス_248" data-name="パス 248" d="M12.961,13.006a.5.5,0,0,1-.071-.955l5.13-.885a12.277,12.277,0,0,1-.6-2.3.5.5,0,1,1,.955-.142,10.508,10.508,0,0,0,.778,2.618.5.5,0,0,1-.354.708l-5.767.955Z" transform="translate(-8.086 -5.116)" fill="#ff990a"/>
            <path id="パス_249" data-name="パス 249" d="M13.049,21.066a.5.5,0,0,1-.071-.955l4.953-.849a15.037,15.037,0,0,1-.071-1.875l-5.2.849a.5.5,0,1,1-.177-.955l5.767-.991a.489.489,0,0,1,.566.5,14.329,14.329,0,0,0,.106,2.76.5.5,0,0,1-.389.566l-5.378.92Z" transform="translate(-7.714 -10.346)" fill="#ff990a"/>
            <path id="パス_250" data-name="パス 250" d="M15.661,29.247a.5.5,0,0,1-.071-.955l5.166-.885a12.454,12.454,0,0,1-.637-2.3.5.5,0,0,1,.955-.177,10.649,10.649,0,0,0,.778,2.618.5.5,0,0,1-.354.708l-5.767.991Z" transform="translate(-9.831 -15.732)" fill="#ff990a"/>
            <path id="パス_251" data-name="パス 251" d="M12.369,51.263a1.981,1.981,0,1,1-3.892.672L-.015,1.977a1.981,1.981,0,1,1,3.892-.672Z" transform="translate(0.078 0.499)" fill="#ff990a"/>
          </g>
          <g id="グループ_113" data-name="グループ 113" transform="translate(3.986 29.453)">
            <path id="パス_252" data-name="パス 252" d="M13.212,92.348c4.918-.46,3.5-8.244-.212-7.784" transform="translate(-12.359 -83.908)" fill="#fff"/>
            <path id="パス_253" data-name="パス 253" d="M12.041,91.787a.6.6,0,1,1-.071-1.2,2.654,2.654,0,0,0,2.3-1.592,4.387,4.387,0,0,0-.5-4.1,2.052,2.052,0,0,0-1.911-.92.606.606,0,1,1-.142-1.2A3.184,3.184,0,0,1,14.73,84.18a5.59,5.59,0,0,1,.637,5.307,3.857,3.857,0,0,1-3.29,2.3Z" transform="translate(-11.188 -82.746)"/>
          </g>
          <g id="グループ_114" data-name="グループ 114" transform="translate(6.785 26.076)">
            <path id="パス_254" data-name="パス 254" d="M20.7,78.38c0,2.052,1.026,3.68,2.3,3.68s2.3-1.663,2.3-3.68S24.273,74.7,23,74.7,20.7,76.363,20.7,78.38Z" transform="translate(-20.134 -74.169)" fill="#fff"/>
            <path id="パス_255" data-name="パス 255" d="M21.966,81.691c-1.592,0-2.866-1.875-2.866-4.246S20.338,73.2,21.966,73.2s2.866,1.875,2.866,4.246S23.593,81.691,21.966,81.691Zm0-7.395c-.849,0-1.734,1.274-1.734,3.149s.814,3.114,1.734,3.114S23.7,79.109,23.7,77.41s-.885-3.149-1.734-3.149Z" transform="translate(-19.1 -73.2)"/>
          </g>
          <rect id="長方形_175" data-name="長方形 175" width="49.038" height="33.715" rx="4.246" transform="translate(22.176 19.99)"/>
          <rect id="長方形_176" data-name="長方形 176" width="22.962" height="19.76" rx="2.547" transform="translate(35.232 26.96)" fill="#fff"/>
          <g id="グループ_115" data-name="グループ 115" transform="translate(28.474 2.653)">
            <path id="パス_256" data-name="パス 256" d="M95.5,15.8a6.3,6.3,0,1,1-6.3-6.3A6.3,6.3,0,0,1,95.5,15.8Z" transform="translate(-82.015 -8.615)" fill="#fff"/>
            <path id="パス_257" data-name="パス 257" d="M87.582,21.365a7.182,7.182,0,1,1,7.182-7.182A7.182,7.182,0,0,1,87.582,21.365Zm0-12.56a5.378,5.378,0,1,0,5.378,5.378A5.378,5.378,0,0,0,87.582,8.8Z" transform="translate(-80.4 -7)"/>
          </g>
          <path id="パス_258" data-name="パス 258" d="M101.236,20.118A2.618,2.618,0,1,1,98.618,17.5,2.618,2.618,0,0,1,101.236,20.118Z" transform="translate(-62.007 -11.132)"/>
          <g id="グループ_116" data-name="グループ 116" transform="translate(50.587 2.653)">
            <path id="パス_259" data-name="パス 259" d="M157.9,15.8a6.3,6.3,0,1,1-6.262-6.3,6.3,6.3,0,0,1,6.262,6.3Z" transform="translate(-144.451 -8.615)" fill="#fff"/>
            <path id="パス_260" data-name="パス 260" d="M150.082,21.365a7.182,7.182,0,1,1,7.182-7.182A7.182,7.182,0,0,1,150.082,21.365Zm0-12.56a5.378,5.378,0,1,0,5.378,5.378A5.378,5.378,0,0,0,150.082,8.8Z" transform="translate(-142.9 -7)"/>
          </g>
          <path id="パス_261" data-name="パス 261" d="M163.736,20.118a2.618,2.618,0,1,1-.779-1.864,2.618,2.618,0,0,1,.779,1.864Z" transform="translate(-102.393 -11.131)"/>
        </g>
      </g>
    </g>
  </g>
</svg>
