<?xml version="1.0" standalone="no"?>
<!DOCTYPE svg PUBLIC "-//W3C//DTD SVG 20010904//EN"
 "http://www.w3.org/TR/2001/REC-SVG-20010904/DTD/svg10.dtd">
<svg version="1.0" xmlns="http://www.w3.org/2000/svg"
 width="260.000000pt" height="260.000000pt" viewBox="0 0 260.000000 260.000000"
 preserveAspectRatio="xMidYMid meet">
<metadata>
Created by potrace 1.11, written by Peter Selinger 2001-2013
</metadata>
<g transform="translate(0.000000,260.000000) scale(0.100000,-0.100000)"
fill="#000000" stroke="none">
<path d="M111 2196 c-23 -25 -24 -49 -8 -131 3 -11 8 -42 12 -70 5 -27 9 -52
10 -55 4 -19 16 -82 21 -115 3 -22 14 -89 24 -150 11 -60 22 -123 24 -140 3
-16 12 -70 20 -118 l15 -88 -32 -29 c-84 -74 -107 -209 -52 -309 32 -58 87
-106 136 -116 16 -4 29 -10 29 -13 0 -4 12 -74 26 -157 14 -82 27 -168 30
-190 10 -73 24 -114 46 -129 27 -19 67 -11 89 17 17 21 17 34 -6 166 -8 48
-17 104 -21 126 -3 22 -12 71 -19 108 l-13 68 45 30 c45 32 44 31 132 14 13
-2 63 -7 110 -11 47 -4 93 -8 101 -9 13 -2 15 -36 15 -241 0 -131 3 -244 7
-250 6 -9 229 -12 828 -11 746 0 821 1 828 16 6 12 9 1058 3 1119 -2 18 -1657
18 -1663 0 -2 -7 -4 -92 -3 -188 0 -170 -1 -176 -20 -177 -228 -7 -235 -7
-235 13 0 9 -11 37 -25 63 -30 55 -103 107 -163 117 -46 7 -42 -2 -67 154 -9
52 -21 128 -29 168 -7 40 -10 75 -6 77 3 2 46 11 95 19 49 9 93 20 98 25 6 6
4 31 -7 69 -9 32 -16 76 -16 98 0 21 -7 61 -15 88 -8 27 -15 71 -15 97 0 26
-4 50 -10 54 -5 3 -54 -2 -109 -10 -98 -16 -100 -16 -120 4 -28 28 -62 26 -90
-3z"/>
<path d="M1203 2105 c-184 -85 -189 -343 -8 -438 29 -15 59 -21 110 -21 59 -1
77 3 118 27 118 69 159 218 92 333 -64 109 -199 152 -312 99z"/>
<path d="M1962 2110 c-111 -50 -166 -158 -142 -276 14 -67 56 -125 117 -161
41 -24 59 -28 118 -27 86 0 138 24 188 86 63 79 74 166 33 253 -58 122 -197
177 -314 125z"/>
</g>
</svg>
