<svg xmlns="http://www.w3.org/2000/svg" width="14.568" height="19" viewBox="0 0 14.568 19"><defs><style>.a{fill:#ff8d1e;}</style></defs><g transform="translate(-59.712 0)"><path class="a" d="M61.014.8c-1.306.847-1.562,3.493-1.069,5.65a19.484,19.484,0,0,0,2.576,6.055A20.234,20.234,0,0,0,67,17.331c1.769,1.33,4.29,2.175,5.6,1.328a6.611,6.611,0,0,0,1.686-1.808l-.7-1.081L71.65,12.8c-.143-.221-1.042-.019-1.5.24a4.347,4.347,0,0,0-1.183,1.285c-.422.244-.776,0-1.515-.339a9,9,0,0,1-2.742-2.893,9,9,0,0,1-1.523-3.684c-.009-.814-.087-1.236.308-1.522a4.348,4.348,0,0,0,1.656-.556c.422-.311.973-1.05.83-1.271L64.054,1.084,63.353,0A6.612,6.612,0,0,0,61.014.8Z" transform="translate(0 0)"/></g></svg>