<svg xmlns="http://www.w3.org/2000/svg" xmlns:xlink="http://www.w3.org/1999/xlink" style="position: absolute; width: 0; height: 0;" width="0" height="0"><defs><style>.cls-1{fill-rule:evenodd}</style></defs><symbol id="ico_call" viewbox="0 0 154.01 154"><path class="cls-1" d="M150 118.81L118.8 98a9.1 9.1 0 00-12.19 2l-9.08 11.67a3.87 3.87 0 01-5 1l-1.73-1c-5.73-3.13-12.85-7-27.2-21.37S45.38 68.91 42.26 63.2l-.95-1.73a3.89 3.89 0 011-5L54 47.4a9.11 9.11 0 002-12.19L35.2 4A9.06 9.06 0 0023 1.29L10 9.13A18.34 18.34 0 001.58 20c-4.7 17.1-1.17 46.62 42.31 90.1 34.59 34.59 60.34 43.89 78 43.89a45.08 45.08 0 0012.11-1.57 18.36 18.36 0 0010.88-8.42l7.83-13a9 9 0 00-2.71-12.19zm-1.68 9.57l-7.82 13a13.23 13.23 0 01-7.83 6.07c-15.79 4.34-43.37.75-85.11-41S2.19 37.16 6.53 21.36a13.26 13.26 0 016.07-7.83l13-7.82a3.91 3.91 0 015.33 1.19l11.29 17 9.48 14.17a4 4 0 01-.85 5.28l-11.67 9.08A9 9 0 0036.8 64l.92 1.68C41 71.66 45.08 79.14 60 94s22.37 19 28.38 22.24l1.69.93a9 9 0 0011.53-2.38l9.07-11.67a4 4 0 015.29-.85l31.17 20.78a3.93 3.93 0 011.16 5.33zM87.27 25.68a43.68 43.68 0 0143.63 43.63 2.57 2.57 0 005.13 0 48.82 48.82 0 00-48.76-48.77 2.57 2.57 0 100 5.14z"/><path class="cls-1" d="M87.27 41.08a28.26 28.26 0 0128.23 28.23 2.57 2.57 0 005.13 0 33.4 33.4 0 00-33.36-33.37 2.57 2.57 0 100 5.14z"/><path class="cls-1" d="M87.27 56.47a12.85 12.85 0 0112.83 12.84 2.57 2.57 0 005.13 0 18 18 0 00-18-18 2.57 2.57 0 100 5.13z"/></symbol><symbol id="ico_government" viewbox="0 0 170 170"><path class="cls-1" d="M79.33 62.33H68a2.84 2.84 0 00-2.83 2.84V76.5A2.83 2.83 0 0068 79.33h11.33a2.84 2.84 0 002.84-2.83V65.17a2.84 2.84 0 00-2.84-2.84zM76.5 73.67h-5.67V68h5.67zM102 68a2.84 2.84 0 000-5.67H90.67a2.84 2.84 0 00-2.84 2.84V76.5a2.84 2.84 0 002.84 2.83H102a2.83 2.83 0 000-5.66h-8.5V68zM56.67 107.67H45.33a2.83 2.83 0 00-2.83 2.83v45.33a2.84 2.84 0 105.67 0v-42.5h5.66v42.5a2.84 2.84 0 105.67 0V110.5a2.83 2.83 0 00-2.83-2.83zM79.33 107.67H68a2.83 2.83 0 00-2.83 2.83v45.33a2.83 2.83 0 105.66 0v-42.5h5.67v42.5a2.84 2.84 0 105.67 0V110.5a2.84 2.84 0 00-2.84-2.83zM102 107.67H90.67a2.84 2.84 0 00-2.84 2.83v45.33a2.84 2.84 0 105.67 0v-42.5h5.67v42.5a2.83 2.83 0 105.66 0V110.5a2.83 2.83 0 00-2.83-2.83zM124.67 107.67h-11.34a2.83 2.83 0 00-2.83 2.83v45.33a2.84 2.84 0 105.67 0v-42.5h5.66v42.5a2.84 2.84 0 105.67 0V110.5a2.83 2.83 0 00-2.83-2.83zM150.17 136a2.84 2.84 0 00-2.84 2.83v17a2.84 2.84 0 105.67 0v-17a2.83 2.83 0 00-2.83-2.83zM19.83 136a2.83 2.83 0 00-2.83 2.83v17a2.84 2.84 0 105.67 0v-17a2.84 2.84 0 00-2.84-2.83z"/><path class="cls-1" d="M167.17 113.33h-28.34V99.17a2.84 2.84 0 00-2.83-2.84h-11.33v-8.5a2.84 2.84 0 00-2.84-2.83h-5.66V56.67H119a2.84 2.84 0 000-5.67H65.17v-2.83a19.83 19.83 0 0139-5 2.84 2.84 0 105.5-1.42A25.49 25.49 0 0093.5 24.14v-10a2.84 2.84 0 00-2.83-2.84h-2.84V2.83a2.83 2.83 0 10-5.66 0v8.5h-2.84a2.84 2.84 0 00-2.83 2.84v10a25.51 25.51 0 00-17 24V51H51a2.84 2.84 0 000 5.67h2.83V85h-5.66a2.84 2.84 0 00-2.84 2.83v8.5H34a2.84 2.84 0 00-2.83 2.84v14.16H2.83A2.84 2.84 0 000 116.17v11.33a2.83 2.83 0 002.83 2.83h2.84v36.84a2.83 2.83 0 005.66 0v-36.84h19.84v36.84a2.83 2.83 0 005.66 0V102h96.34v65.17a2.83 2.83 0 005.66 0v-36.84h19.84v36.84a2.83 2.83 0 005.66 0v-36.84h2.84a2.83 2.83 0 002.83-2.83v-11.33a2.84 2.84 0 00-2.83-2.84zM82.17 17h5.66v5.84c-.93 0-1.87-.17-2.83-.17a22.28 22.28 0 00-2.83.17zM5.67 124.67V119h25.5v5.67zm53.83-68h51V85h-51zM51 96.33v-5.66h68v5.66zm113.33 28.34h-25.5V119h25.5z"/></symbol><symbol id="ico_graph" viewbox="0 0 126.41 126.41"><path class="cls-1" d="M18.76 59.26a11.08 11.08 0 007.71-3.12l10.9 5.45a10.28 10.28 0 00-.09 1.41 11.11 11.11 0 1021.14-4.79l14.81-14.85A11.11 11.11 0 0088.62 30l12.87-9.65a11.14 11.14 0 10-4.44-5.93l-12.88 9.67A11 11 0 0078 22.22a11.12 11.12 0 00-11.09 11.11A11 11 0 0068 38.12L53.18 52.94a11.06 11.06 0 00-12.49 2l-10.9-5.45a12.44 12.44 0 00.08-1.37 11.11 11.11 0 10-11.11 11.14zm88.89-51.85a3.7 3.7 0 11-3.7 3.7 3.7 3.7 0 013.7-3.7zM78 29.63a3.71 3.71 0 11-3.7 3.7 3.7 3.7 0 013.7-3.7zM48.39 59.26a3.7 3.7 0 11-3.7 3.7 3.71 3.71 0 013.7-3.7zM18.76 44.44a3.71 3.71 0 11-3.7 3.71 3.71 3.71 0 013.7-3.71z"/><path class="cls-1" d="M122.71 119h-3.95V40.74a3.7 3.7 0 00-3.7-3.7h-14.82a3.7 3.7 0 00-3.7 3.7V119h-7.41V63a3.7 3.7 0 00-3.7-3.7H70.61a3.7 3.7 0 00-3.7 3.7v56H59.5V92.59a3.7 3.7 0 00-3.7-3.71H41a3.71 3.71 0 00-3.71 3.71V119h-7.42V77.77a3.7 3.7 0 00-3.7-3.7H11.36a3.71 3.71 0 00-3.71 3.7V119H3.7a3.7 3.7 0 000 7.4h119a3.7 3.7 0 100-7.4zM104 44.44h7.4V119H104zM74.32 66.66h7.4V119h-7.4zM44.69 96.29h7.41V119h-7.41zM15.06 81.48h7.41V119h-7.41z"/></symbol><symbol id="ico_lamp" viewbox="0 0 134.12 171.39"><path class="cls-1" d="M26 57a3.34 3.34 0 004.23-2.12 38.74 38.74 0 0175.57 12.18c0 16.51-7.39 26.37-13.34 34.3-4.32 5.77-8 10.75-8 16.79v1.18h-14v-7.69a3.35 3.35 0 10-6.7 0v7.69h-14v-1.18c0-6-3.74-11-8.06-16.79S32.31 88.9 29.86 79.5a3.35 3.35 0 00-6.48 1.69c2.79 10.68 8.4 18.17 12.92 24.19 3.75 5 6.71 9 6.71 12.77 0 1.6.07 3.16.2 4.66v28.31a2.45 2.45 0 000 .27v.06a2.25 2.25 0 00.06.36 25 25 0 008.38 14 23.91 23.91 0 0030.78 0 25.1 25.1 0 008.38-14c0-.12 0-.24.06-.36v-.06a2.44 2.44 0 000-.27v-28.31c.13-1.5.2-3.06.2-4.66 0-3.81 3-7.77 6.72-12.77C104 97.11 112.5 85.8 112.5 67.06a45.45 45.45 0 00-88.59-14.27A3.34 3.34 0 0026 57zm41 107.69a17.71 17.71 0 01-15.85-10.23h31.7a17.74 17.74 0 01-15.79 10.24zm17.15-16.93H49.91v-7.52h34.3zm0-14.22H49.91V126h34.3zM67.06 15.61a3.34 3.34 0 003.35-3.34V3.35a3.35 3.35 0 10-6.7 0v8.92a3.34 3.34 0 003.35 3.34zM3.35 70.41h8.92a3.35 3.35 0 000-6.7H3.35a3.35 3.35 0 100 6.7z"/><path class="cls-1" d="M82.38 73.82A3.34 3.34 0 0079 70.47H55a3.35 3.35 0 100 6.7h8.63v7.69a3.35 3.35 0 106.7 0v-7.69H79a3.34 3.34 0 003.38-3.35zM26 30.68a3.34 3.34 0 004.73 0 3.34 3.34 0 000-4.73l-6.3-6.31a3.35 3.35 0 10-4.74 4.74zM19.7 117.76a3.32 3.32 0 002.37-1l6.3-6.3a3.35 3.35 0 10-4.73-4.74l-6.31 6.31a3.35 3.35 0 002.37 5.71zM105.8 31.66a3.32 3.32 0 002.37-1l6.3-6.3a3.35 3.35 0 00-4.73-4.74L103.43 26a3.36 3.36 0 000 4.73 3.32 3.32 0 002.37.93zM105.74 105.74a3.37 3.37 0 000 4.74l6.31 6.3a3.34 3.34 0 004.73-4.73l-6.3-6.31a3.37 3.37 0 00-4.74 0zM121.85 70.41h8.92a3.35 3.35 0 000-6.7h-8.92a3.35 3.35 0 100 6.7zM67.06 94.9a3.35 3.35 0 103.35 3.35 3.35 3.35 0 00-3.35-3.35zM28.31 67.06A3.35 3.35 0 1025 70.41a3.35 3.35 0 003.31-3.35z"/></symbol><symbol id="ico_mail" viewbox="0 0 138.75 104.06"><path class="cls-1" d="M125.74 0H13A13 13 0 000 13v78a13 13 0 0013 13h112.74a13 13 0 0013-13V13a13 13 0 00-13-13zm0 8.67a4.18 4.18 0 011.66.33l-58 50.29L11.35 9A4.18 4.18 0 0113 8.67zm0 86.72H13a4.34 4.34 0 01-4.34-4.34V18.17l57.87 50.15a4.35 4.35 0 005.69 0l57.86-50.15v72.88a4.34 4.34 0 01-4.34 4.34z"/></symbol><symbol id="ico_meter" viewbox="0 0 143.46 164"><path class="cls-1" d="M135.92 53.92a2.73 2.73 0 01-2.73-2.73V12.67A12.69 12.69 0 00120.52 0H22.94a12.69 12.69 0 00-12.67 12.67v38.52a2.73 2.73 0 01-2.73 2.73 7.54 7.54 0 000 15.08 2.73 2.73 0 012.73 2.73v38.51a12.7 12.7 0 0010.27 12.45v33.77a7.55 7.55 0 007.54 7.54h87.3a7.55 7.55 0 007.54-7.54v-33.77a12.7 12.7 0 0010.27-12.45V71.73a2.73 2.73 0 012.73-2.73 7.54 7.54 0 100-15.08zM10.27 64.71a7.53 7.53 0 00-2.73-.52 2.73 2.73 0 110-5.46 7.53 7.53 0 002.73-.52zm107.84 91.75a2.74 2.74 0 01-2.73 2.74h-87.3a2.74 2.74 0 01-2.73-2.74v-33.54h5.46v15.57a5 5 0 005 5h71.9a5 5 0 005-5v-15.57h5.46zm-69.49-23.27a2.4 2.4 0 002.4-2.4v-7.87h10.6v7.87a2.41 2.41 0 004.81 0v-7.87H77v7.87a2.4 2.4 0 004.8 0v-7.87h10.64v7.87a2.4 2.4 0 004.8 0v-7.87h10.6v15.57a.16.16 0 01-.16.16h-71.9a.16.16 0 01-.16-.16v-15.57h10.6v7.87a2.4 2.4 0 002.4 2.4zm71.9-15.08H22.94a7.88 7.88 0 01-7.87-7.87V12.67a7.88 7.88 0 017.87-7.87h97.57a7.88 7.88 0 017.87 7.87v97.57a7.88 7.88 0 01-7.86 7.87zm15.4-53.92a7.53 7.53 0 00-2.73.52v-6.5a7.53 7.53 0 002.73.52 2.73 2.73 0 010 5.46z"/><path class="cls-1" d="M102.54 12.84h-77a2.39 2.39 0 00-2.4 2.4v92.44a2.4 2.4 0 002.4 2.4h5.14a2.41 2.41 0 000-4.81h-2.77V17.64h74.63a2.4 2.4 0 000-4.8zM118 12.84h-5.14a2.4 2.4 0 000 4.8h2.74v87.63H40.92a2.41 2.41 0 100 4.81h77a2.41 2.41 0 002.4-2.4V15.24a2.4 2.4 0 00-2.32-2.4z"/><path class="cls-1" d="M100 41.08H43.48a5 5 0 00-5 5v10.24a5 5 0 005 5H100a5 5 0 005-5V46.05a5 5 0 00-5-4.97zM48.79 56.49h-5.3a.17.17 0 01-.17-.17V46.05a.16.16 0 01.17-.16h5.3zm10.27 0h-5.47v-10.6h5.47zm10.27 0h-5.47v-10.6h5.47zm10.27 0h-5.47v-10.6h5.47zm10.27 0H84.4v-10.6h5.47zm10.27-.17a.18.18 0 01-.17.17h-5.3v-10.6H100a.17.17 0 01.17.16zM46.05 69.33a7.54 7.54 0 107.54 7.54 7.55 7.55 0 00-7.54-7.54zm0 10.27a2.74 2.74 0 112.74-2.73 2.74 2.74 0 01-2.74 2.73zM97.41 69.33a7.54 7.54 0 107.53 7.54 7.55 7.55 0 00-7.53-7.54zm0 10.27a2.74 2.74 0 112.73-2.73 2.74 2.74 0 01-2.73 2.73zM71.73 69.33a7.54 7.54 0 107.54 7.54 7.55 7.55 0 00-7.54-7.54zm0 10.27a2.74 2.74 0 112.73-2.73 2.73 2.73 0 01-2.73 2.73z"/></symbol><symbol id="ico_notice" viewbox="0 0 168 90.28"><path class="cls-1" d="M48.81 90.28c1.47-7.34 4.77-14.28 10.27-19.45a35.43 35.43 0 0149.91 0 34.18 34.18 0 019.91 19.45h11.74a47.42 47.42 0 00-13.21-27.53 47 47 0 00-66.05 0 47.42 47.42 0 00-13.21 27.53zM84 41.47A5.4 5.4 0 0089.54 36V5.5a5.51 5.51 0 00-11 0V36A5.21 5.21 0 0084 41.47zM33.76 20.55L49.18 47a5.66 5.66 0 109.9-5.5L43.67 15.05A5.92 5.92 0 0036 12.84a5.91 5.91 0 00-2.24 7.71zM2.94 55.41l26.42 15.42a5.67 5.67 0 005.5-9.91L8.44 45.51a5.57 5.57 0 00-7.71 2.2 5.57 5.57 0 002.21 7.7zM131 68.63a5.92 5.92 0 007.71 2.2l26.42-15.42a5.66 5.66 0 10-5.5-9.9l-26.42 15.41c-2.57 1.83-3.67 5.14-2.21 7.71zM111.19 49.18A5.92 5.92 0 00118.9 47l15.41-26.42a5.66 5.66 0 10-9.9-5.5L109 41.47a5.58 5.58 0 002.19 7.71z"/></symbol><symbol id="ico_phone" viewbox="0 0 94 163.15"><path class="cls-1" d="M82.05 0H12A12 12 0 000 12v139.2a12 12 0 0012 12h70.1a12 12 0 0012-12V12A12 12 0 0082.05 0zm7.17 129.69H21.51a2.39 2.39 0 000 4.78h67.71v16.73a7.18 7.18 0 01-7.17 7.17H12a7.18 7.18 0 01-7.17-7.17v-16.73H12a2.39 2.39 0 000-4.78H4.78V23.9h84.44zm0-110.57H4.78V12A7.18 7.18 0 0112 4.78h70.1A7.18 7.18 0 0189.22 12z"/><path class="cls-1" d="M56.56 9.56H47a2.39 2.39 0 000 4.78h9.56a2.39 2.39 0 100-4.78zM47 139.25a7.17 7.17 0 107.17 7.17 7.18 7.18 0 00-7.17-7.17zm0 9.56a2.39 2.39 0 112.39-2.39 2.4 2.4 0 01-2.39 2.39z"/><circle class="cls-1" cx="37.44" cy="11.95" r="2.39"/></symbol><symbol id="ico_plug" viewbox="0 0 99.26 154"><path class="cls-1" d="M22.56 0a4.51 4.51 0 00-4.51 4.51v23.16H4.51A4.51 4.51 0 000 32.18v18a4.51 4.51 0 004.51 4.51H9V77.3a40.67 40.67 0 0036.32 40.38A40.67 40.67 0 0085.72 154a4.51 4.51 0 000-9 31.64 31.64 0 01-31.3-27.36A40.66 40.66 0 0090.23 77.3V54.74h4.52a4.51 4.51 0 004.51-4.51v-18a4.51 4.51 0 00-4.51-4.51H81.21V4.51a4.51 4.51 0 10-9 0v23.16H27.07V4.51A4.51 4.51 0 0022.56 0zm67.67 45.72h-4.51a4.51 4.51 0 00-4.51 4.51V77.3a31.58 31.58 0 11-63.16 0V50.23a4.51 4.51 0 00-4.51-4.51H9v-9h81.23z"/><path class="cls-1" d="M60.67 73.27L48.22 67l4.6-4.6c4.22-4.21-2.16-10.6-6.38-6.38l-9 9a4.5 4.5 0 001.17 7.22L51 78.54l-4.6 4.59c-4.23 4.23 2.2 10.56 6.38 6.38l9-9a4.51 4.51 0 00-1.11-7.24z"/></symbol><symbol id="ico_www" viewbox="0 0 148 148"><path class="cls-1" d="M139.65 0H8.35A8.36 8.36 0 000 8.35v103.18a8.37 8.37 0 008.35 8.36h48.41L47.58 144a3 3 0 00.33 2.74 3 3 0 002.44 1.26h47.3a3 3 0 002.77-4l-9.16-24.1h48.39a8.37 8.37 0 008.35-8.36V8.35A8.36 8.36 0 00139.65 0zM93.36 142.08H54.64l8.46-22.19h21.83zm48.72-30.55a2.43 2.43 0 01-2.43 2.44H8.35a2.43 2.43 0 01-2.43-2.44v-10.64h136.16zm0-16.56H5.92V8.35a2.43 2.43 0 012.43-2.43h131.3a2.43 2.43 0 012.43 2.43z"/><path class="cls-1" d="M48.11 50.35c-.79 3.15-1.5 6-2 8.73H46c-.37-2.66-1-5.66-1.76-8.65l-3.06-12.82h-3.41L34.4 50.35c-.86 3.26-1.65 6.26-2.06 8.77h-.08c-.45-2.44-1.12-5.59-1.87-8.73l-3-12.78H24l6.4 25.25h3.41l3.6-13.15a82.9 82.9 0 002-8.24h.07A75.73 75.73 0 0041 49.71l3.18 13.15h3.41l7.16-25.25h-3.31zM80.42 50.35c-.79 3.15-1.5 6-2 8.73h-.07c-.38-2.66-1-5.66-1.76-8.65l-3.1-12.82h-3.41L66.7 50.35c-.86 3.26-1.64 6.26-2.06 8.77h-.07c-.45-2.44-1.12-5.59-1.87-8.73l-3-12.78h-3.45l6.41 25.25h3.41l3.6-13.15a79.88 79.88 0 001.94-8.24h.08a75.73 75.73 0 001.65 8.24l3.18 13.15h3.41l7.15-25.25h-3.33zM112.72 50.35c-.78 3.15-1.49 6-2 8.73h-.07c-.38-2.66-1-5.66-1.77-8.65l-3.07-12.82h-3.41L99 50.35c-.86 3.26-1.64 6.26-2.06 8.77h-.07c-.45-2.44-1.13-5.59-1.87-8.73l-3-12.78h-3.44L95 62.86h3.41L102 49.71a77.63 77.63 0 002-8.24 75.49 75.49 0 001.64 8.24l3.19 13.15h3.41l7.15-25.25h-3.33zM121.84 58.56a2.36 2.36 0 102.21 2.35 2.18 2.18 0 00-2.21-2.35z"/></symbol><symbol id="ico_yen" viewbox="0 0 154.39 148.76"><path class="cls-1" d="M122.53 9.13A5.56 5.56 0 00114 2L73.84 49.83 33.66 2a5.55 5.55 0 10-8.5 7.15l43.13 51.34v7.94H50.07a5.56 5.56 0 100 11.11h18.22v11.73H50.07a5.55 5.55 0 100 11.1h18.22v25.37a5.56 5.56 0 1011.11 0v-25.37h18a5.55 5.55 0 100-11.1h-18V79.54h18a5.56 5.56 0 100-11.11h-18v-7.94z"/><path d="M119.42 66.61V117h-11.78l14.69 16.27L137 117h-11.76V66.61z" fill-rule="evenodd"/><path d="M5.67 143.09h143.05" fill="none" stroke="#006cb6" stroke-linecap="round" stroke-width="11.34"/></symbol><symbol id="open_in_new-24px" viewbox="0 0 24 24"><path d="M0 0h24v24H0z" fill="none"/><path d="M19 19H5V5h7V3H5a2 2 0 00-2 2v14a2 2 0 002 2h14c1.1 0 2-.9 2-2v-7h-2v7zM14 3v2h3.59l-9.83 9.83 1.41 1.41L19 6.41V10h2V3h-7z"/></symbol></svg>