<svg xmlns="http://www.w3.org/2000/svg" viewBox="0 0 148 148"><title>ico_www</title><g><g><path class="cls-1" d="M139.65,0H8.35A8.36,8.36,0,0,0,0,8.35V111.53a8.37,8.37,0,0,0,8.35,8.36H56.76L47.58,144a3,3,0,0,0,.33,2.74A3,3,0,0,0,50.35,148h47.3a3,3,0,0,0,2.77-4l-9.16-24.1h48.39a8.37,8.37,0,0,0,8.35-8.36V8.35A8.36,8.36,0,0,0,139.65,0ZM93.36,142.08H54.64l8.46-22.19H84.93Zm48.72-30.55a2.43,2.43,0,0,1-2.43,2.44H8.35a2.43,2.43,0,0,1-2.43-2.44V100.89H142.08Zm0-16.56H5.92V8.35A2.43,2.43,0,0,1,8.35,5.92h131.3a2.43,2.43,0,0,1,2.43,2.43Z"/><path class="cls-1" d="M48.11,50.35c-.79,3.15-1.5,6-2,8.73H46c-.37-2.66-1-5.66-1.76-8.65L41.18,37.61H37.77L34.4,50.35c-.86,3.26-1.65,6.26-2.06,8.77h-.08c-.45-2.44-1.12-5.59-1.87-8.73l-3-12.78H24l6.4,25.25h3.41l3.6-13.15a82.9,82.9,0,0,0,2-8.24h.07A75.73,75.73,0,0,0,41,49.71l3.18,13.15h3.41l7.16-25.25H51.44Z"/><path class="cls-1" d="M80.42,50.35c-.79,3.15-1.5,6-2,8.73h-.07c-.38-2.66-1-5.66-1.76-8.65L73.49,37.61H70.08L66.7,50.35c-.86,3.26-1.64,6.26-2.06,8.77h-.07c-.45-2.44-1.12-5.59-1.87-8.73l-3-12.78H56.25l6.41,25.25h3.41l3.6-13.15a79.88,79.88,0,0,0,1.94-8.24h.08a75.73,75.73,0,0,0,1.65,8.24l3.18,13.15h3.41l7.15-25.25H83.75Z"/><path class="cls-1" d="M112.72,50.35c-.78,3.15-1.49,6-2,8.73h-.07c-.38-2.66-1-5.66-1.77-8.65l-3.07-12.82h-3.41L99,50.35c-.86,3.26-1.64,6.26-2.06,8.77h-.07c-.45-2.44-1.13-5.59-1.87-8.73L92,37.61H88.56L95,62.86h3.41L102,49.71a77.63,77.63,0,0,0,2-8.24H104a75.49,75.49,0,0,0,1.64,8.24l3.19,13.15h3.41l7.15-25.25h-3.33Z"/><path class="cls-1" d="M121.84,58.56a2.36,2.36,0,1,0,2.21,2.35A2.18,2.18,0,0,0,121.84,58.56Z"/></g></g></svg>
