<svg xmlns="http://www.w3.org/2000/svg" viewBox="0 0 94 163.15"><title>ico_phone</title><g><g><path class="cls-1" d="M82.05,0H12A12,12,0,0,0,0,12V151.2a12,12,0,0,0,12,12h70.1a12,12,0,0,0,12-12V12A12,12,0,0,0,82.05,0Zm7.17,129.69H21.51a2.39,2.39,0,0,0,0,4.78H89.22V151.2a7.18,7.18,0,0,1-7.17,7.17H12a7.18,7.18,0,0,1-7.17-7.17V134.47H12a2.39,2.39,0,0,0,0-4.78H4.78V23.9H89.22Zm0-110.57H4.78V12A7.18,7.18,0,0,1,12,4.78h70.1A7.18,7.18,0,0,1,89.22,12Z"/><path class="cls-1" d="M56.56,9.56H47a2.39,2.39,0,0,0,0,4.78h9.56a2.39,2.39,0,1,0,0-4.78Z"/><path class="cls-1" d="M47,139.25a7.17,7.17,0,1,0,7.17,7.17A7.18,7.18,0,0,0,47,139.25Zm0,9.56a2.39,2.39,0,1,1,2.39-2.39A2.4,2.4,0,0,1,47,148.81Z"/><circle class="cls-1" cx="37.44" cy="11.95" r="2.39"/></g></g></svg>
