<svg xmlns="http://www.w3.org/2000/svg" viewBox="0 0 99.26 154"><title>ico_plug</title><g><g><path class="cls-1" d="M22.56,0a4.51,4.51,0,0,0-4.51,4.51V27.67H4.51A4.51,4.51,0,0,0,0,32.18v18a4.51,4.51,0,0,0,4.51,4.51H9V77.3a40.67,40.67,0,0,0,36.32,40.38A40.67,40.67,0,0,0,85.72,154a4.51,4.51,0,0,0,0-9,31.64,31.64,0,0,1-31.3-27.36A40.66,40.66,0,0,0,90.23,77.3V54.74h4.52a4.51,4.51,0,0,0,4.51-4.51v-18a4.51,4.51,0,0,0-4.51-4.51H81.21V4.51a4.51,4.51,0,1,0-9,0V27.67H27.07V4.51A4.51,4.51,0,0,0,22.56,0ZM90.23,45.72H85.72a4.51,4.51,0,0,0-4.51,4.51V77.3a31.58,31.58,0,1,1-63.16,0V50.23a4.51,4.51,0,0,0-4.51-4.51H9v-9H90.23Z"/><path class="cls-1" d="M60.67,73.27,48.22,67l4.6-4.6c4.22-4.21-2.16-10.6-6.38-6.38l-9,9a4.5,4.5,0,0,0,1.17,7.22L51,78.54l-4.6,4.59c-4.23,4.23,2.2,10.56,6.38,6.38l9-9A4.51,4.51,0,0,0,60.67,73.27Z"/></g></g></svg>
