<svg xmlns="http://www.w3.org/2000/svg" viewBox="0 0 154.39 148.76"><defs><style>.cls-2{fill-rule:evenodd;}.cls-3{fill:none;stroke:#006cb6;stroke-linecap:round;stroke-width:11.34px;}</style></defs><title>ico_yen</title><g><g><path class="cls-1" d="M122.53,9.13A5.56,5.56,0,0,0,114,2L73.84,49.83,33.66,2a5.55,5.55,0,1,0-8.5,7.15L68.29,60.49v7.94H50.07a5.56,5.56,0,1,0,0,11.11H68.29V91.27H50.07a5.55,5.55,0,1,0,0,11.1H68.29v25.37a5.56,5.56,0,1,0,11.11,0V102.37h18a5.55,5.55,0,1,0,0-11.1h-18V79.54h18a5.56,5.56,0,1,0,0-11.11h-18V60.49Z"/><path class="cls-2" d="M119.42,66.61V117H107.64l14.69,16.27L137,117H125.24V66.61Z"/><path class="cls-3" d="M5.67,143.09H148.72"/></g></g></svg>
