<svg xmlns="http://www.w3.org/2000/svg" viewBox="0 0 126.41 126.41"><title>ico_graph</title><g><g><path class="cls-1" d="M18.76,59.26a11.08,11.08,0,0,0,7.71-3.12l10.9,5.45A10.28,10.28,0,0,0,37.28,63a11.11,11.11,0,1,0,21.14-4.79L73.23,43.36A11.11,11.11,0,0,0,88.62,30l12.87-9.65a11.14,11.14,0,1,0-4.44-5.93L84.17,24.09A11,11,0,0,0,78,22.22,11.12,11.12,0,0,0,66.91,33.33,11,11,0,0,0,68,38.12L53.18,52.94a11.06,11.06,0,0,0-12.49,2l-10.9-5.45a12.44,12.44,0,0,0,.08-1.37A11.11,11.11,0,1,0,18.76,59.26ZM107.65,7.41a3.7,3.7,0,1,1-3.7,3.7A3.7,3.7,0,0,1,107.65,7.41ZM78,29.63a3.71,3.71,0,1,1-3.7,3.7A3.7,3.7,0,0,1,78,29.63ZM48.39,59.26a3.7,3.7,0,1,1-3.7,3.7A3.71,3.71,0,0,1,48.39,59.26ZM18.76,44.44a3.71,3.71,0,1,1-3.7,3.71A3.71,3.71,0,0,1,18.76,44.44Z"/><path class="cls-1" d="M122.71,119h-3.95V40.74a3.7,3.7,0,0,0-3.7-3.7H100.24a3.7,3.7,0,0,0-3.7,3.7V119H89.13V63a3.7,3.7,0,0,0-3.7-3.7H70.61a3.7,3.7,0,0,0-3.7,3.7V119H59.5V92.59a3.7,3.7,0,0,0-3.7-3.71H41a3.71,3.71,0,0,0-3.71,3.71V119H29.87V77.77a3.7,3.7,0,0,0-3.7-3.7H11.36a3.71,3.71,0,0,0-3.71,3.7V119H3.7a3.7,3.7,0,0,0,0,7.4h119a3.7,3.7,0,1,0,0-7.4ZM104,44.44h7.4V119H104ZM74.32,66.66h7.4V119h-7.4ZM44.69,96.29H52.1V119H44.69ZM15.06,81.48h7.41V119H15.06Z"/></g></g></svg>
