<svg xmlns="http://www.w3.org/2000/svg" viewBox="0 0 170 170"><title>ico_government</title><g><g><path class="cls-1" d="M79.33,62.33H68a2.84,2.84,0,0,0-2.83,2.84V76.5A2.83,2.83,0,0,0,68,79.33H79.33a2.84,2.84,0,0,0,2.84-2.83V65.17A2.84,2.84,0,0,0,79.33,62.33ZM76.5,73.67H70.83V68H76.5Z"/><path class="cls-1" d="M102,68a2.84,2.84,0,0,0,0-5.67H90.67a2.84,2.84,0,0,0-2.84,2.84V76.5a2.84,2.84,0,0,0,2.84,2.83H102a2.83,2.83,0,0,0,0-5.66H93.5V68Z"/><path class="cls-1" d="M56.67,107.67H45.33a2.83,2.83,0,0,0-2.83,2.83v45.33a2.84,2.84,0,1,0,5.67,0v-42.5h5.66v42.5a2.84,2.84,0,1,0,5.67,0V110.5A2.83,2.83,0,0,0,56.67,107.67Z"/><path class="cls-1" d="M79.33,107.67H68a2.83,2.83,0,0,0-2.83,2.83v45.33a2.83,2.83,0,1,0,5.66,0v-42.5H76.5v42.5a2.84,2.84,0,1,0,5.67,0V110.5A2.84,2.84,0,0,0,79.33,107.67Z"/><path class="cls-1" d="M102,107.67H90.67a2.84,2.84,0,0,0-2.84,2.83v45.33a2.84,2.84,0,1,0,5.67,0v-42.5h5.67v42.5a2.83,2.83,0,1,0,5.66,0V110.5A2.83,2.83,0,0,0,102,107.67Z"/><path class="cls-1" d="M124.67,107.67H113.33a2.83,2.83,0,0,0-2.83,2.83v45.33a2.84,2.84,0,1,0,5.67,0v-42.5h5.66v42.5a2.84,2.84,0,1,0,5.67,0V110.5A2.83,2.83,0,0,0,124.67,107.67Z"/><path class="cls-1" d="M150.17,136a2.84,2.84,0,0,0-2.84,2.83v17a2.84,2.84,0,1,0,5.67,0v-17A2.83,2.83,0,0,0,150.17,136Z"/><path class="cls-1" d="M19.83,136A2.83,2.83,0,0,0,17,138.83v17a2.84,2.84,0,1,0,5.67,0v-17A2.84,2.84,0,0,0,19.83,136Z"/><path class="cls-1" d="M167.17,113.33H138.83V99.17A2.84,2.84,0,0,0,136,96.33H124.67v-8.5A2.84,2.84,0,0,0,121.83,85h-5.66V56.67H119A2.84,2.84,0,0,0,119,51H65.17V48.17a19.83,19.83,0,0,1,39-5,2.84,2.84,0,1,0,5.5-1.42h0A25.49,25.49,0,0,0,93.5,24.14v-10a2.84,2.84,0,0,0-2.83-2.84H87.83V2.83a2.83,2.83,0,1,0-5.66,0v8.5H79.33a2.84,2.84,0,0,0-2.83,2.84v10a25.51,25.51,0,0,0-17,24V51H51a2.84,2.84,0,0,0,0,5.67h2.83V85H48.17a2.84,2.84,0,0,0-2.84,2.83v8.5H34a2.84,2.84,0,0,0-2.83,2.84v14.16H2.83A2.84,2.84,0,0,0,0,116.17V127.5a2.83,2.83,0,0,0,2.83,2.83H5.67v36.84a2.83,2.83,0,0,0,5.66,0V130.33H31.17v36.84a2.83,2.83,0,0,0,5.66,0V102h96.34v65.17a2.83,2.83,0,0,0,5.66,0V130.33h19.84v36.84a2.83,2.83,0,0,0,5.66,0V130.33h2.84A2.83,2.83,0,0,0,170,127.5V116.17A2.84,2.84,0,0,0,167.17,113.33ZM82.17,17h5.66v5.84c-.93,0-1.87-.17-2.83-.17a22.28,22.28,0,0,0-2.83.17ZM5.67,124.67V119h25.5v5.67Zm53.83-68h51V85h-51ZM51,96.33V90.67h68v5.66Zm113.33,28.34h-25.5V119h25.5Z"/></g></g></svg>
