<svg xmlns="http://www.w3.org/2000/svg" viewBox="0 0 143.46 164"><title>ico_meter</title><g><g><path class="cls-1" d="M135.92,53.92a2.73,2.73,0,0,1-2.73-2.73V12.67A12.69,12.69,0,0,0,120.52,0H22.94A12.69,12.69,0,0,0,10.27,12.67V51.19a2.73,2.73,0,0,1-2.73,2.73A7.54,7.54,0,0,0,7.54,69a2.73,2.73,0,0,1,2.73,2.73v38.51a12.7,12.7,0,0,0,10.27,12.45v33.77A7.55,7.55,0,0,0,28.08,164h87.3a7.55,7.55,0,0,0,7.54-7.54V122.69a12.7,12.7,0,0,0,10.27-12.45V71.73A2.73,2.73,0,0,1,135.92,69a7.54,7.54,0,1,0,0-15.08ZM10.27,64.71a7.53,7.53,0,0,0-2.73-.52,2.73,2.73,0,1,1,0-5.46,7.53,7.53,0,0,0,2.73-.52Zm107.84,91.75a2.74,2.74,0,0,1-2.73,2.74H28.08a2.74,2.74,0,0,1-2.73-2.74V122.92h5.46v15.57a5,5,0,0,0,5,5h71.9a5,5,0,0,0,5-5V122.92h5.46ZM48.62,133.19a2.4,2.4,0,0,0,2.4-2.4v-7.87h10.6v7.87a2.41,2.41,0,0,0,4.81,0v-7.87H77v7.87a2.4,2.4,0,0,0,4.8,0v-7.87H92.44v7.87a2.4,2.4,0,0,0,4.8,0v-7.87h10.6v15.57a.16.16,0,0,1-.16.16H35.78a.16.16,0,0,1-.16-.16V122.92h10.6v7.87A2.4,2.4,0,0,0,48.62,133.19Zm71.9-15.08H22.94a7.88,7.88,0,0,1-7.87-7.87V12.67A7.88,7.88,0,0,1,22.94,4.8h97.57a7.88,7.88,0,0,1,7.87,7.87v97.57h0A7.88,7.88,0,0,1,120.52,118.11Zm15.4-53.92a7.53,7.53,0,0,0-2.73.52v-6.5a7.53,7.53,0,0,0,2.73.52,2.73,2.73,0,0,1,0,5.46Z"/><path class="cls-1" d="M102.54,12.84h-77a2.39,2.39,0,0,0-2.4,2.4v92.44a2.4,2.4,0,0,0,2.4,2.4h5.14a2.41,2.41,0,0,0,0-4.81H27.91V17.64h74.63a2.4,2.4,0,0,0,0-4.8Z"/><path class="cls-1" d="M118,12.84h-5.14a2.4,2.4,0,0,0,0,4.8h2.74v87.63H40.92a2.41,2.41,0,1,0,0,4.81h77a2.41,2.41,0,0,0,2.4-2.4V15.24A2.4,2.4,0,0,0,118,12.84Z"/><path class="cls-1" d="M100,41.08H43.48a5,5,0,0,0-5,5V56.32a5,5,0,0,0,5,5H100a5,5,0,0,0,5-5V46.05A5,5,0,0,0,100,41.08ZM48.79,56.49h-5.3a.17.17,0,0,1-.17-.17V46.05a.16.16,0,0,1,.17-.16h5.3Zm10.27,0H53.59V45.89h5.47Zm10.27,0H63.86V45.89h5.47Zm10.27,0H74.13V45.89H79.6Zm10.27,0H84.4V45.89h5.47Zm10.27-.17a.18.18,0,0,1-.17.17h-5.3V45.89H100a.17.17,0,0,1,.17.16Z"/><path class="cls-1" d="M46.05,69.33a7.54,7.54,0,1,0,7.54,7.54A7.55,7.55,0,0,0,46.05,69.33Zm0,10.27a2.74,2.74,0,1,1,2.74-2.73A2.74,2.74,0,0,1,46.05,79.6Z"/><path class="cls-1" d="M97.41,69.33a7.54,7.54,0,1,0,7.53,7.54A7.55,7.55,0,0,0,97.41,69.33Zm0,10.27a2.74,2.74,0,1,1,2.73-2.73A2.74,2.74,0,0,1,97.41,79.6Z"/><path class="cls-1" d="M71.73,69.33a7.54,7.54,0,1,0,7.54,7.54A7.55,7.55,0,0,0,71.73,69.33Zm0,10.27a2.74,2.74,0,1,1,2.73-2.73A2.73,2.73,0,0,1,71.73,79.6Z"/></g></g></svg>
