<svg xmlns="http://www.w3.org/2000/svg" viewBox="0 0 168 90.28"><title>ico_notice</title><g><g><path class="cls-1" d="M48.81,90.28C50.28,82.94,53.58,76,59.08,70.83a35.43,35.43,0,0,1,49.91,0,34.18,34.18,0,0,1,9.91,19.45h11.74a47.42,47.42,0,0,0-13.21-27.53,47,47,0,0,0-66.05,0A47.42,47.42,0,0,0,38.17,90.28Z"/><path class="cls-1" d="M84,41.47A5.4,5.4,0,0,0,89.54,36V5.5a5.51,5.51,0,0,0-11,0V36A5.21,5.21,0,0,0,84,41.47Z"/><path class="cls-1" d="M33.76,20.55,49.18,47a5.66,5.66,0,1,0,9.9-5.5L43.67,15.05A5.92,5.92,0,0,0,36,12.84,5.91,5.91,0,0,0,33.76,20.55Z"/><path class="cls-1" d="M2.94,55.41,29.36,70.83a5.67,5.67,0,0,0,5.5-9.91L8.44,45.51a5.57,5.57,0,0,0-7.71,2.2A5.57,5.57,0,0,0,2.94,55.41Z"/><path class="cls-1" d="M131,68.63a5.92,5.92,0,0,0,7.71,2.2l26.42-15.42a5.66,5.66,0,1,0-5.5-9.9L133.21,60.92C130.64,62.75,129.54,66.06,131,68.63Z"/><path class="cls-1" d="M111.19,49.18A5.92,5.92,0,0,0,118.9,47l15.41-26.42a5.66,5.66,0,1,0-9.9-5.5L109,41.47A5.58,5.58,0,0,0,111.19,49.18Z"/></g></g></svg>
