<svg xmlns="http://www.w3.org/2000/svg" viewBox="0 0 154.01 154"><title>ico_call</title><g><g><path class="cls-1" d="M150,118.81,118.8,98a9.1,9.1,0,0,0-12.19,2l-9.08,11.67a3.87,3.87,0,0,1-5,1l-1.73-1c-5.73-3.13-12.85-7-27.2-21.37S45.38,68.91,42.26,63.2l-.95-1.73a3.89,3.89,0,0,1,1-5L54,47.4a9.11,9.11,0,0,0,2-12.19L35.2,4A9.06,9.06,0,0,0,23,1.29L10,9.13A18.34,18.34,0,0,0,1.58,20c-4.7,17.1-1.17,46.62,42.31,90.1,34.59,34.59,60.34,43.89,78,43.89A45.08,45.08,0,0,0,134,152.42,18.36,18.36,0,0,0,144.88,144l7.83-13A9,9,0,0,0,150,118.81Zm-1.68,9.57-7.82,13a13.23,13.23,0,0,1-7.83,6.07c-15.79,4.34-43.37.75-85.11-41S2.19,37.16,6.53,21.36a13.26,13.26,0,0,1,6.07-7.83l13-7.82A3.91,3.91,0,0,1,30.93,6.9l11.29,17L51.7,38.07a4,4,0,0,1-.85,5.28L39.18,52.43A9,9,0,0,0,36.8,64l.92,1.68C41,71.66,45.08,79.14,60,94s22.37,19,28.38,22.24l1.69.93a9,9,0,0,0,11.53-2.38l9.07-11.67a4,4,0,0,1,5.29-.85l31.17,20.78A3.93,3.93,0,0,1,148.29,128.38Z"/><path class="cls-1" d="M87.27,25.68A43.68,43.68,0,0,1,130.9,69.31a2.57,2.57,0,0,0,5.13,0A48.82,48.82,0,0,0,87.27,20.54a2.57,2.57,0,1,0,0,5.14Z"/><path class="cls-1" d="M87.27,41.08A28.26,28.26,0,0,1,115.5,69.31a2.57,2.57,0,0,0,5.13,0A33.4,33.4,0,0,0,87.27,35.94a2.57,2.57,0,1,0,0,5.14Z"/><path class="cls-1" d="M87.27,56.47A12.85,12.85,0,0,1,100.1,69.31a2.57,2.57,0,0,0,5.13,0,18,18,0,0,0-18-18,2.57,2.57,0,1,0,0,5.13Z"/></g></g></svg>
