<svg xmlns="http://www.w3.org/2000/svg" viewBox="0 0 134.12 171.39"><defs><style>.cls-1{fill-rule:evenodd;}</style></defs><title>ico_lamp</title><g><g><path class="cls-1" d="M26,57a3.34,3.34,0,0,0,4.23-2.12A38.74,38.74,0,0,1,105.8,67.06c0,16.51-7.39,26.37-13.34,34.3-4.32,5.77-8,10.75-8,16.79,0,.39,0,.79,0,1.18h-14v-7.69a3.35,3.35,0,1,0-6.7,0v7.69h-14c0-.39,0-.79,0-1.18,0-6-3.74-11-8.06-16.79S32.31,88.9,29.86,79.5a3.35,3.35,0,0,0-6.48,1.69c2.79,10.68,8.4,18.17,12.92,24.19,3.75,5,6.71,9,6.71,12.77,0,1.6.07,3.16.2,4.66v28.31a2.45,2.45,0,0,0,0,.27v.06a2.25,2.25,0,0,0,.06.36h0a25,25,0,0,0,8.38,14,23.91,23.91,0,0,0,30.78,0,25.1,25.1,0,0,0,8.38-14h0c0-.12,0-.24.06-.36v-.06a2.44,2.44,0,0,0,0-.27V122.81c.13-1.5.2-3.06.2-4.66,0-3.81,3-7.77,6.72-12.77C104,97.11,112.5,85.8,112.5,67.06A45.45,45.45,0,0,0,23.91,52.79,3.34,3.34,0,0,0,26,57Zm41,107.69a17.71,17.71,0,0,1-15.85-10.23h31.7A17.74,17.74,0,0,1,67.06,164.7Zm17.15-16.93H49.91v-7.52h34.3Zm0-14.22H49.91V126h34.3Z"/><path class="cls-1" d="M67.06,15.61a3.34,3.34,0,0,0,3.35-3.34V3.35a3.35,3.35,0,1,0-6.7,0v8.92A3.34,3.34,0,0,0,67.06,15.61Z"/><path class="cls-1" d="M3.35,70.41h8.92a3.35,3.35,0,0,0,0-6.7H3.35a3.35,3.35,0,1,0,0,6.7Z"/><path class="cls-1" d="M82.38,73.82A3.34,3.34,0,0,0,79,70.47h-24a3.35,3.35,0,1,0,0,6.7h8.63v7.69a3.35,3.35,0,1,0,6.7,0V77.17H79A3.34,3.34,0,0,0,82.38,73.82Z"/><path class="cls-1" d="M26,30.68a3.34,3.34,0,0,0,4.73,0,3.34,3.34,0,0,0,0-4.73l-6.3-6.31a3.35,3.35,0,1,0-4.74,4.74Z"/><path class="cls-1" d="M19.7,117.76a3.32,3.32,0,0,0,2.37-1l6.3-6.3a3.35,3.35,0,1,0-4.73-4.74l-6.31,6.31a3.35,3.35,0,0,0,2.37,5.71Z"/><path class="cls-1" d="M105.8,31.66a3.32,3.32,0,0,0,2.37-1l6.3-6.3a3.35,3.35,0,0,0-4.73-4.74L103.43,26a3.36,3.36,0,0,0,0,4.73A3.32,3.32,0,0,0,105.8,31.66Z"/><path class="cls-1" d="M105.74,105.74a3.37,3.37,0,0,0,0,4.74l6.31,6.3a3.34,3.34,0,0,0,4.73-4.73l-6.3-6.31A3.37,3.37,0,0,0,105.74,105.74Z"/><path class="cls-1" d="M121.85,70.41h8.92a3.35,3.35,0,0,0,0-6.7h-8.92a3.35,3.35,0,1,0,0,6.7Z"/><path class="cls-1" d="M67.06,94.9a3.35,3.35,0,1,0,3.35,3.35A3.35,3.35,0,0,0,67.06,94.9Z"/><path class="cls-1" d="M28.31,67.06A3.35,3.35,0,1,0,25,70.41,3.35,3.35,0,0,0,28.31,67.06Z"/></g></g></svg>
